<?xml version="1.0" encoding="UTF-8" standalone="no"?>
<!DOCTYPE svg PUBLIC "-//W3C//DTD SVG 1.1//EN"
 "http://www.w3.org/Graphics/SVG/1.1/DTD/svg11.dtd">
<!-- Generated by graphviz version 2.50.0 (20211204.2007)
 -->
<!-- Title: G Pages: 1 -->
<svg width="608pt" height="471pt"
 viewBox="0.00 0.00 607.50 471.00" xmlns="http://www.w3.org/2000/svg" xmlns:xlink="http://www.w3.org/1999/xlink">
<g id="graph0" class="graph" transform="scale(1 1) rotate(0) translate(4 467)">
<title>G</title>
<polygon fill="white" stroke="transparent" points="-4,4 -4,-467 603.5,-467 603.5,4 -4,4"/>
<g id="clust1" class="cluster">
<title>cluster_catalyst</title>
<g id="a_clust1"><a xlink:href="https://github.com/decentraland/catalyst" xlink:title="Catalyst &lt;BR/&gt; &lt;FONT POINT&#45;SIZE=&quot;15&quot;&gt;Decentralized Servers&lt;/FONT&gt;">
<polygon fill="#a6bddb" stroke="black" points="8,-8 8,-455 424,-455 424,-8 8,-8"/>
<text text-anchor="start" x="169" y="-432.8" font-family="Helvetica,Arial,sans-serif" font-size="24.00">Catalyst </text>
<text text-anchor="start" x="138.5" y="-408.8" font-family="Helvetica,Arial,sans-serif" font-size="24.00"> </text>
<text text-anchor="start" x="145.5" y="-408.8" font-family="Helvetica,Arial,sans-serif" font-size="15.00">Decentralized Servers</text>
</a>
</g>
</g>
<!-- BFF -->
<g id="node1" class="node">
<title>BFF</title>
<g id="a_node1"><a xlink:href="https://github.com/decentraland/explorer-bff" xlink:title="BFF&lt;BR /&gt; &lt;FONT POINT&#45;SIZE=&quot;10&quot;&gt;P2P Signaling and &lt;br/&gt;Client entry point&lt;/FONT&gt;">
<polygon fill="#fff7fb" stroke="black" stroke-width="2" points="160,-391 16,-391 16,-319 160,-319 160,-391"/>
<text text-anchor="start" x="68" y="-365.2" font-family="Helvetica,Arial,sans-serif" font-size="21.00">BFF</text>
<text text-anchor="start" x="42.5" y="-344.2" font-family="Helvetica,Arial,sans-serif" font-size="21.00"> </text>
<text text-anchor="start" x="49.5" y="-344.2" font-family="Helvetica,Arial,sans-serif" font-size="10.00">P2P Signaling and </text>
<text text-anchor="start" x="50.5" y="-332" font-family="Helvetica,Arial,sans-serif" font-size="10.00">Client entry point</text>
</a>
</g>
</g>
<!-- Nginx -->
<g id="node2" class="node">
<title>Nginx</title>
<polygon fill="#fff7fb" stroke="black" stroke-width="2" points="416,-391 272,-391 272,-319 416,-319 416,-391"/>
<text text-anchor="start" x="316.5" y="-360.2" font-family="Helvetica,Arial,sans-serif" font-size="21.00">Nginx</text>
<text text-anchor="start" x="307.5" y="-339.2" font-family="Helvetica,Arial,sans-serif" font-size="21.00"> </text>
<text text-anchor="start" x="314.5" y="-339.2" font-family="Helvetica,Arial,sans-serif" font-size="10.00">Reverse Proxy</text>
</g>
<!-- BFF&#45;&gt;Nginx -->
<g id="edge6" class="edge">
<title>BFF&#45;&gt;Nginx</title>
<path fill="none" stroke="black" d="M170.28,-355C200.7,-355 231.12,-355 261.55,-355"/>
<polygon fill="black" stroke="black" points="170.25,-351.5 160.25,-355 170.25,-358.5 170.25,-351.5"/>
<polygon fill="black" stroke="black" points="261.86,-358.5 271.86,-355 261.86,-351.5 261.86,-358.5"/>
</g>
<!-- Archipelago -->
<g id="node3" class="node">
<title>Archipelago</title>
<g id="a_node3"><a xlink:href="https://github.com/decentraland/archipelago-service" xlink:title="Archipelago&lt;BR/&gt; &lt;FONT POINT&#45;SIZE=&quot;10&quot;&gt;Groups peers in islands&lt;/FONT&gt;">
<polygon fill="#fff7fb" stroke="black" stroke-width="2" points="160,-290 16,-290 16,-218 160,-218 160,-290"/>
<text text-anchor="start" x="31.5" y="-259.2" font-family="Helvetica,Arial,sans-serif" font-size="21.00">Archipelago</text>
<text text-anchor="start" x="33" y="-238.2" font-family="Helvetica,Arial,sans-serif" font-size="21.00"> </text>
<text text-anchor="start" x="40" y="-238.2" font-family="Helvetica,Arial,sans-serif" font-size="10.00">Groups peers in islands</text>
</a>
</g>
</g>
<!-- BFF&#45;&gt;Archipelago -->
<!-- NATS -->
<g id="node4" class="node">
<title>NATS</title>
<g id="a_node4"><a xlink:href="https://nats.io/" xlink:title="NATS&lt;BR/&gt; &lt;FONT POINT&#45;SIZE=&quot;10&quot;&gt;Message Broker&lt;/FONT&gt;">
<polygon fill="#fff7fb" stroke="black" stroke-width="2" points="416,-290 272,-290 272,-218 416,-218 416,-290"/>
<text text-anchor="start" x="316.5" y="-259.2" font-family="Helvetica,Arial,sans-serif" font-size="21.00">NATS</text>
<text text-anchor="start" x="304.5" y="-238.2" font-family="Helvetica,Arial,sans-serif" font-size="21.00"> </text>
<text text-anchor="start" x="311.5" y="-238.2" font-family="Helvetica,Arial,sans-serif" font-size="10.00">Message Broker</text>
</a>
</g>
</g>
<!-- BFF&#45;&gt;NATS -->
<g id="edge7" class="edge">
<title>BFF&#45;&gt;NATS</title>
<path fill="none" stroke="black" d="M169.89,-322.33C199.47,-310.89 232.84,-297.99 262.39,-286.56"/>
<polygon fill="black" stroke="black" points="168.4,-319.16 160.33,-326.03 170.92,-325.69 168.4,-319.16"/>
<polygon fill="black" stroke="black" points="263.78,-289.77 271.85,-282.9 261.26,-283.25 263.78,-289.77"/>
</g>
<!-- Nginx&#45;&gt;NATS -->
<!-- CatalystClient -->
<g id="node9" class="node">
<title>CatalystClient</title>
<polygon fill="#fff7fb" stroke="black" stroke-width="2" points="599.5,-290 452.5,-290 452.5,-218 599.5,-218 599.5,-290"/>
<text text-anchor="middle" x="526" y="-248.7" font-family="Helvetica,Arial,sans-serif" font-size="21.00">CatalystClient</text>
</g>
<!-- Nginx&#45;&gt;CatalystClient -->
<g id="edge11" class="edge">
<title>Nginx&#45;&gt;CatalystClient</title>
<path fill="none" stroke="black" d="M417.39,-314.08C428.87,-307.83 440.75,-301.37 452.24,-295.12"/>
<polygon fill="black" stroke="black" points="415.53,-311.1 408.42,-318.96 418.88,-317.25 415.53,-311.1"/>
<polygon fill="black" stroke="black" points="454.25,-298.02 461.36,-290.16 450.9,-291.87 454.25,-298.02"/>
</g>
<!-- Archipelago&#45;&gt;NATS -->
<g id="edge8" class="edge">
<title>Archipelago&#45;&gt;NATS</title>
<path fill="none" stroke="black" d="M170.28,-254C200.7,-254 231.12,-254 261.55,-254"/>
<polygon fill="black" stroke="black" points="170.25,-250.5 160.25,-254 170.25,-257.5 170.25,-250.5"/>
<polygon fill="black" stroke="black" points="261.86,-257.5 271.86,-254 261.86,-250.5 261.86,-257.5"/>
</g>
<!-- Lambdas -->
<g id="node5" class="node">
<title>Lambdas</title>
<g id="a_node5"><a xlink:href="https://github.com/decentraland/catalyst/tree/main/lambdas" xlink:title="Lambdas&lt;BR/&gt; &lt;FONT POINT&#45;SIZE=&quot;10&quot;&gt;Utilities to retrieve and validate data&lt;/FONT&gt;">
<polygon fill="#fff7fb" stroke="black" stroke-width="2" points="196,-189 16,-189 16,-117 196,-117 196,-189"/>
<text text-anchor="start" x="62" y="-158.2" font-family="Helvetica,Arial,sans-serif" font-size="21.00">Lambdas</text>
<text text-anchor="start" x="24" y="-137.2" font-family="Helvetica,Arial,sans-serif" font-size="21.00"> </text>
<text text-anchor="start" x="31" y="-137.2" font-family="Helvetica,Arial,sans-serif" font-size="10.00">Utilities to retrieve and validate data</text>
</a>
</g>
</g>
<!-- Archipelago&#45;&gt;Lambdas -->
<!-- Lambdas&#45;&gt;Nginx -->
<g id="edge5" class="edge">
<title>Lambdas:e&#45;&gt;Nginx</title>
<path fill="none" stroke="black" d="M207.15,-153.99C250.67,-163.75 190.23,-243.25 225,-290 234.91,-303.33 248.44,-314.18 262.84,-322.9"/>
<polygon fill="black" stroke="black" points="207.29,-150.49 197,-153 206.61,-157.46 207.29,-150.49"/>
<polygon fill="black" stroke="black" points="261.46,-326.15 271.88,-328.06 264.93,-320.07 261.46,-326.15"/>
</g>
<!-- Content -->
<g id="node6" class="node">
<title>Content</title>
<g id="a_node6"><a xlink:href="https://github.com/decentraland/catalyst/tree/main/content" xlink:title="Content Server&lt;BR/&gt; &lt;FONT POINT&#45;SIZE=&quot;10&quot;&gt;Assets Storage&lt;/FONT&gt;">
<polygon fill="#fff7fb" stroke="black" stroke-width="2" points="186,-88 26,-88 26,-16 186,-16 186,-88"/>
<text text-anchor="start" x="34" y="-57.2" font-family="Helvetica,Arial,sans-serif" font-size="21.00">Content Server</text>
<text text-anchor="start" x="68.5" y="-36.2" font-family="Helvetica,Arial,sans-serif" font-size="21.00"> </text>
<text text-anchor="start" x="75.5" y="-36.2" font-family="Helvetica,Arial,sans-serif" font-size="10.00">Assets Storage</text>
</a>
</g>
</g>
<!-- Lambdas&#45;&gt;Content -->
<!-- TheGraph -->
<g id="node7" class="node">
<title>TheGraph</title>
<g id="a_node7"><a xlink:href="https://thegraph.com/hosted-service/subgraph/decentraland/collections-matic-mainnet" xlink:title="The Graph&lt;BR/&gt; &lt;FONT POINT&#45;SIZE=&quot;10&quot;&gt;Query the Blockchain&lt;/FONT&gt;">
<polygon fill="#fff7fb" stroke="black" stroke-width="2" points="576,-88 432,-88 432,-16 576,-16 576,-88"/>
<text text-anchor="start" x="452.5" y="-57.2" font-family="Helvetica,Arial,sans-serif" font-size="21.00">The Graph</text>
<text text-anchor="start" x="453.5" y="-36.2" font-family="Helvetica,Arial,sans-serif" font-size="21.00"> </text>
<text text-anchor="start" x="460.5" y="-36.2" font-family="Helvetica,Arial,sans-serif" font-size="10.00">Query the Blockchain</text>
</a>
</g>
</g>
<!-- Lambdas&#45;&gt;TheGraph -->
<g id="edge10" class="edge">
<title>Lambdas:ne&#45;&gt;TheGraph</title>
<path fill="none" stroke="black" d="M424,-108.07C431.67,-103.11 439.01,-98.27 445.92,-93.65"/>
<polygon fill="black" stroke="black" points="447.94,-96.51 454.28,-88.02 444.03,-90.71 447.94,-96.51"/>
</g>
<!-- Content&#45;&gt;Nginx -->
<g id="edge4" class="edge">
<title>Content:e&#45;&gt;Nginx</title>
<path fill="none" stroke="black" d="M197.25,-52.48C290.16,-61.68 194.9,-201.72 254,-290 259.44,-298.13 266.28,-305.55 273.76,-312.24"/>
<polygon fill="black" stroke="black" points="197.15,-48.97 187,-52 196.83,-55.96 197.15,-48.97"/>
<polygon fill="black" stroke="black" points="271.51,-314.92 281.41,-318.68 276.01,-309.56 271.51,-314.92"/>
</g>
<!-- LiveKit -->
<g id="node8" class="node">
<title>LiveKit</title>
<g id="a_node8"><a xlink:href="https://livekit.io/" xlink:title="LiveKit&lt;BR/&gt; &lt;FONT POINT&#45;SIZE=&quot;10&quot;&gt;High Quality Media Server&lt;/FONT&gt;">
<polygon fill="#fff7fb" stroke="black" stroke-width="2" points="598,-189 454,-189 454,-117 598,-117 598,-189"/>
<text text-anchor="start" x="494" y="-158.2" font-family="Helvetica,Arial,sans-serif" font-size="21.00">LiveKit</text>
<text text-anchor="start" x="465" y="-137.2" font-family="Helvetica,Arial,sans-serif" font-size="21.00"> </text>
<text text-anchor="start" x="472" y="-137.2" font-family="Helvetica,Arial,sans-serif" font-size="10.00">High Quality Media Server</text>
</a>
</g>
</g>
<!-- CatalystClient&#45;&gt;LiveKit -->
</g>
</svg>
