<?xml version="1.0" encoding="UTF-8" standalone="no"?>
<!DOCTYPE svg PUBLIC "-//W3C//DTD SVG 1.1//EN"
 "http://www.w3.org/Graphics/SVG/1.1/DTD/svg11.dtd">
<!-- Generated by graphviz version 2.50.0 (20211204.2007)
 -->
<!-- Title: G Pages: 1 -->
<svg width="2284pt" height="449pt"
 viewBox="0.00 0.00 2283.50 449.00" xmlns="http://www.w3.org/2000/svg" xmlns:xlink="http://www.w3.org/1999/xlink">
<g id="graph0" class="graph" transform="scale(1 1) rotate(0) translate(4 445)">
<title>G</title>
<polygon fill="white" stroke="transparent" points="-4,4 -4,-445 2279.5,-445 2279.5,4 -4,4"/>
<g id="clust1" class="cluster">
<title>cluster_catalyst</title>
<g id="a_clust1"><a xlink:href="https://github.com/decentraland/catalyst" xlink:title="Catalyst &lt;BR/&gt; &lt;FONT POINT&#45;SIZE=&quot;15&quot;&gt;Decentralized Servers&lt;/FONT&gt;">
<polygon fill="#a6bddb" stroke="black" points="8,-8 8,-433 1538,-433 1538,-8 8,-8"/>
<text text-anchor="middle" x="773" y="-409.8" font-family="Helvetica,Arial,sans-serif" font-size="24.00">Catalyst &lt;BR/&gt; &lt;FONT POINT&#45;SIZE=&quot;15&quot;&gt;Decentralized Servers&lt;/FONT&gt;</text>
</a>
</g>
</g>
<!-- TheGraph -->
<g id="node1" class="node">
<title>TheGraph</title>
<g id="a_node1"><a xlink:href="https://thegraph.com/hosted-service/subgraph/decentraland/collections-matic-mainnet" xlink:title="The Graph&lt;BR/&gt; &lt;FONT POINT&#45;SIZE=&quot;10&quot;&gt;Query the Blockchain&lt;/FONT&gt;">
<polygon fill="#fff7fb" stroke="black" stroke-width="2" points="2275.5,-88 1546.5,-88 1546.5,-16 2275.5,-16 2275.5,-88"/>
<text text-anchor="middle" x="1911" y="-46.7" font-family="Helvetica,Arial,sans-serif" font-size="21.00">The Graph&lt;BR/&gt; &lt;FONT POINT&#45;SIZE=&quot;10&quot;&gt;Query the Blockchain&lt;/FONT&gt;</text>
</a>
</g>
</g>
<!-- BFF -->
<g id="node2" class="node">
<title>BFF</title>
<g id="a_node2"><a xlink:href="https://github.com/decentraland/explorer-bff" xlink:title="BFF&lt;BR /&gt; &lt;FONT POINT&#45;SIZE=&quot;10&quot;&gt;P2P Signaling and &lt;br/&gt;Client entry point&lt;/FONT&gt;">
<polygon fill="#fff7fb" stroke="black" stroke-width="2" points="876,-391 16,-391 16,-319 876,-319 876,-391"/>
<text text-anchor="middle" x="446" y="-349.7" font-family="Helvetica,Arial,sans-serif" font-size="21.00">BFF&lt;BR /&gt; &lt;FONT POINT&#45;SIZE=&quot;10&quot;&gt;P2P Signaling and &lt;br/&gt;Client entry point&lt;/FONT&gt;</text>
</a>
</g>
</g>
<!-- Nginx -->
<g id="node3" class="node">
<title>Nginx</title>
<polygon fill="#fff7fb" stroke="black" stroke-width="2" points="1529.5,-391 912.5,-391 912.5,-319 1529.5,-319 1529.5,-391"/>
<text text-anchor="middle" x="1221" y="-349.7" font-family="Helvetica,Arial,sans-serif" font-size="21.00">Nginx&lt;BR/&gt; &lt;FONT POINT&#45;SIZE=&quot;10&quot;&gt;Reverse Proxy&lt;/FONT&gt;</text>
</g>
<!-- BFF&#45;&gt;Nginx -->
<!-- Archipelago -->
<g id="node4" class="node">
<title>Archipelago</title>
<g id="a_node4"><a xlink:href="https://github.com/decentraland/archipelago-service" xlink:title="Archipelago&lt;BR/&gt; &lt;FONT POINT&#45;SIZE=&quot;10&quot;&gt;Groups peers in islands&lt;/FONT&gt;">
<polygon fill="#fff7fb" stroke="black" stroke-width="2" points="783.5,-290 22.5,-290 22.5,-218 783.5,-218 783.5,-290"/>
<text text-anchor="middle" x="403" y="-248.7" font-family="Helvetica,Arial,sans-serif" font-size="21.00">Archipelago&lt;BR/&gt; &lt;FONT POINT&#45;SIZE=&quot;10&quot;&gt;Groups peers in islands&lt;/FONT&gt;</text>
</a>
</g>
</g>
<!-- BFF&#45;&gt;Archipelago -->
<!-- NATS -->
<g id="node5" class="node">
<title>NATS</title>
<g id="a_node5"><a xlink:href="https://nats.io/" xlink:title="NATS&lt;BR/&gt; &lt;FONT POINT&#45;SIZE=&quot;10&quot;&gt;Message Broker&lt;/FONT&gt;">
<polygon fill="#fff7fb" stroke="black" stroke-width="2" points="1530,-290 896,-290 896,-218 1530,-218 1530,-290"/>
<text text-anchor="middle" x="1213" y="-248.7" font-family="Helvetica,Arial,sans-serif" font-size="21.00">NATS&lt;BR/&gt; &lt;FONT POINT&#45;SIZE=&quot;10&quot;&gt;Message Broker&lt;/FONT&gt;</text>
</a>
</g>
</g>
<!-- BFF&#45;&gt;NATS -->
<!-- Nginx&#45;&gt;NATS -->
<!-- CatalystClient -->
<g id="node8" class="node">
<title>CatalystClient</title>
<polygon fill="#fff7fb" stroke="black" stroke-width="2" points="1713.5,-290 1566.5,-290 1566.5,-218 1713.5,-218 1713.5,-290"/>
<text text-anchor="middle" x="1640" y="-248.7" font-family="Helvetica,Arial,sans-serif" font-size="21.00">CatalystClient</text>
</g>
<!-- Nginx&#45;&gt;CatalystClient -->
<g id="edge11" class="edge">
<title>Nginx&#45;&gt;CatalystClient</title>
<path fill="none" stroke="black" d="M1436.9,-316.87C1473.88,-309.02 1511.73,-300.02 1547,-290 1550.15,-289.1 1553.35,-288.15 1556.57,-287.15"/>
<polygon fill="black" stroke="black" points="1436.07,-313.47 1427,-318.95 1437.51,-320.32 1436.07,-313.47"/>
<polygon fill="black" stroke="black" points="1557.82,-290.42 1566.26,-284.02 1555.67,-283.76 1557.82,-290.42"/>
</g>
<!-- Archipelago&#45;&gt;NATS -->
<!-- Lambdas -->
<g id="node7" class="node">
<title>Lambdas</title>
<g id="a_node7"><a xlink:href="https://github.com/decentraland/catalyst/tree/main/lambdas" xlink:title="Lambdas&lt;BR/&gt; &lt;FONT POINT&#45;SIZE=&quot;10&quot;&gt;Utilities to retrieve and validate data&lt;/FONT&gt;">
<polygon fill="#fff7fb" stroke="black" stroke-width="2" points="1374,-189 524,-189 524,-117 1374,-117 1374,-189"/>
<text text-anchor="middle" x="949" y="-147.7" font-family="Helvetica,Arial,sans-serif" font-size="21.00">Lambdas&lt;BR/&gt; &lt;FONT POINT&#45;SIZE=&quot;10&quot;&gt;Utilities to retrieve and validate data&lt;/FONT&gt;</text>
</a>
</g>
</g>
<!-- Archipelago&#45;&gt;Lambdas -->
<!-- Content -->
<g id="node6" class="node">
<title>Content</title>
<g id="a_node6"><a xlink:href="https://github.com/decentraland/catalyst/tree/main/content" xlink:title="Content Server&lt;BR/&gt; &lt;FONT POINT&#45;SIZE=&quot;10&quot;&gt;Assets Storage&lt;/FONT&gt;">
<polygon fill="#fff7fb" stroke="black" stroke-width="2" points="1305.5,-88 592.5,-88 592.5,-16 1305.5,-16 1305.5,-88"/>
<text text-anchor="middle" x="949" y="-46.7" font-family="Helvetica,Arial,sans-serif" font-size="21.00">Content Server&lt;BR/&gt; &lt;FONT POINT&#45;SIZE=&quot;10&quot;&gt;Assets Storage&lt;/FONT&gt;</text>
</a>
</g>
</g>
<!-- Content&#45;&gt;Nginx -->
<!-- Lambdas&#45;&gt;TheGraph -->
<g id="edge10" class="edge">
<title>Lambdas:ne&#45;&gt;TheGraph</title>
<path fill="none" stroke="black" d="M1547.87,-169.86C1631.51,-147.76 1728.73,-116.17 1801.52,-91.41"/>
<polygon fill="black" stroke="black" points="1546.79,-166.52 1538,-172.44 1548.56,-173.3 1546.79,-166.52"/>
<polygon fill="black" stroke="black" points="1802.96,-94.61 1811.3,-88.07 1800.7,-87.99 1802.96,-94.61"/>
</g>
<!-- Lambdas&#45;&gt;Nginx -->
<!-- Lambdas&#45;&gt;Content -->
</g>
</svg>
