<?xml version="1.0" encoding="UTF-8" standalone="no"?><svg xmlns="http://www.w3.org/2000/svg" xmlns:xlink="http://www.w3.org/1999/xlink" contentStyleType="text/css" height="362px" preserveAspectRatio="none" style="width:1482px;height:362px;background:#FFFFFF;" version="1.1" viewBox="0 0 1482 362" width="1482px" zoomAndPan="magnify"><defs/><g><rect height="11.7773" style="stroke:#00000000;stroke-width:1.0;fill:none;" width="72" x="1396" y="0"/><text fill="#888888" font-family="sans-serif" font-size="10" lengthAdjust="spacing" textLength="72" x="1396" y="9.668">Content Server</text><!--MD5=[8057ce764d90030538cfb75b46618f6d]
entity contentserver--><g id="elem_contentserver"><rect fill="#F1F1F1" height="39.4883" rx="2.5" ry="2.5" style="stroke:#181818;stroke-width:0.5;" width="132" x="557" y="19.7773"/><polygon fill="#F1F1F1" points="672,24.7773,672,38.7773,684,38.7773,684,30.7773,678,24.7773,672,24.7773" style="stroke:#181818;stroke-width:0.5;"/><line style="stroke:#181818;stroke-width:0.5;" x1="678" x2="678" y1="24.7773" y2="30.7773"/><line style="stroke:#181818;stroke-width:0.5;" x1="684" x2="678" y1="30.7773" y2="30.7773"/><text fill="#000000" font-family="sans-serif" font-size="14" lengthAdjust="spacing" textLength="102" x="567" y="46.3125">content-server</text></g><!--MD5=[549b2c0bab588137aeb052f9dbbc6263]
entity catalystapispecs--><g id="elem_catalystapispecs"><rect fill="#F1F1F1" height="39.4883" rx="2.5" ry="2.5" style="stroke:#181818;stroke-width:0.5;" width="156" x="7" y="118.7773"/><polygon fill="#F1F1F1" points="146,123.7773,146,137.7773,158,137.7773,158,129.7773,152,123.7773,146,123.7773" style="stroke:#181818;stroke-width:0.5;"/><line style="stroke:#181818;stroke-width:0.5;" x1="152" x2="152" y1="123.7773" y2="129.7773"/><line style="stroke:#181818;stroke-width:0.5;" x1="158" x2="152" y1="129.7773" y2="129.7773"/><text fill="#000000" font-family="sans-serif" font-size="14" lengthAdjust="spacing" textLength="126" x="17" y="145.3125">catalyst-api-specs</text></g><!--MD5=[126f4549bd88685c817470eb62ade7f4]
entity catalystcontracts--><g id="elem_catalystcontracts"><rect fill="#F1F1F1" height="39.4883" rx="2.5" ry="2.5" style="stroke:#181818;stroke-width:0.5;" width="191" x="27.5" y="217.7773"/><polygon fill="#F1F1F1" points="201.5,222.7773,201.5,236.7773,213.5,236.7773,213.5,228.7773,207.5,222.7773,201.5,222.7773" style="stroke:#181818;stroke-width:0.5;"/><line style="stroke:#181818;stroke-width:0.5;" x1="207.5" x2="207.5" y1="222.7773" y2="228.7773"/><line style="stroke:#181818;stroke-width:0.5;" x1="213.5" x2="207.5" y1="228.7773" y2="228.7773"/><text fill="#000000" font-family="sans-serif" font-size="14" lengthAdjust="spacing" textLength="161" x="37.5" y="244.3125">@dcl/catalyst-contracts</text></g><!--MD5=[a70e63df2b0daf121c6de1d3f5144ff5]
entity contentvalidator--><g id="elem_contentvalidator"><rect fill="#F1F1F1" height="39.4883" rx="2.5" ry="2.5" style="stroke:#181818;stroke-width:0.5;" width="189" x="978.5" y="118.7773"/><polygon fill="#F1F1F1" points="1150.5,123.7773,1150.5,137.7773,1162.5,137.7773,1162.5,129.7773,1156.5,123.7773,1150.5,123.7773" style="stroke:#181818;stroke-width:0.5;"/><line style="stroke:#181818;stroke-width:0.5;" x1="1156.5" x2="1156.5" y1="123.7773" y2="129.7773"/><line style="stroke:#181818;stroke-width:0.5;" x1="1162.5" x2="1156.5" y1="129.7773" y2="129.7773"/><text fill="#000000" font-family="sans-serif" font-size="14" lengthAdjust="spacing" textLength="159" x="988.5" y="145.3125">@dcl/content-validator</text></g><!--MD5=[6cc4354bc172bfab4bc5d504e938f9dd]
entity crypto--><g id="elem_crypto"><rect fill="#F1F1F1" height="39.4883" rx="2.5" ry="2.5" style="stroke:#181818;stroke-width:0.5;" width="112" x="458" y="118.7773"/><polygon fill="#F1F1F1" points="553,123.7773,553,137.7773,565,137.7773,565,129.7773,559,123.7773,553,123.7773" style="stroke:#181818;stroke-width:0.5;"/><line style="stroke:#181818;stroke-width:0.5;" x1="559" x2="559" y1="123.7773" y2="129.7773"/><line style="stroke:#181818;stroke-width:0.5;" x1="565" x2="559" y1="129.7773" y2="129.7773"/><text fill="#000000" font-family="sans-serif" font-size="14" lengthAdjust="spacing" textLength="82" x="468" y="145.3125">@dcl/crypto</text></g><!--MD5=[50c3cd0b79a81c36198e823695041bb3]
entity hashing--><g id="elem_hashing"><rect fill="#F1F1F1" height="39.4883" rx="2.5" ry="2.5" style="stroke:#181818;stroke-width:0.5;" width="124" x="922" y="217.7773"/><polygon fill="#F1F1F1" points="1029,222.7773,1029,236.7773,1041,236.7773,1041,228.7773,1035,222.7773,1029,222.7773" style="stroke:#181818;stroke-width:0.5;"/><line style="stroke:#181818;stroke-width:0.5;" x1="1035" x2="1035" y1="222.7773" y2="228.7773"/><line style="stroke:#181818;stroke-width:0.5;" x1="1041" x2="1035" y1="228.7773" y2="228.7773"/><text fill="#000000" font-family="sans-serif" font-size="14" lengthAdjust="spacing" textLength="94" x="932" y="244.3125">@dcl/hashing</text></g><!--MD5=[f50278905982483810086d91fb8fa489]
entity schemas--><g id="elem_schemas"><rect fill="#F1F1F1" height="39.4883" rx="2.5" ry="2.5" style="stroke:#181818;stroke-width:0.5;" width="128" x="544" y="217.7773"/><polygon fill="#F1F1F1" points="655,222.7773,655,236.7773,667,236.7773,667,228.7773,661,222.7773,655,222.7773" style="stroke:#181818;stroke-width:0.5;"/><line style="stroke:#181818;stroke-width:0.5;" x1="661" x2="661" y1="222.7773" y2="228.7773"/><line style="stroke:#181818;stroke-width:0.5;" x1="667" x2="661" y1="228.7773" y2="228.7773"/><text fill="#000000" font-family="sans-serif" font-size="14" lengthAdjust="spacing" textLength="98" x="554" y="244.3125">@dcl/schemas</text></g><!--MD5=[a6918ae6e4f08324b235002e20f5f2a0]
entity snapshotsfetcher--><g id="elem_snapshotsfetcher"><rect fill="#F1F1F1" height="39.4883" rx="2.5" ry="2.5" style="stroke:#181818;stroke-width:0.5;" width="195" x="676.5" y="118.7773"/><polygon fill="#F1F1F1" points="854.5,123.7773,854.5,137.7773,866.5,137.7773,866.5,129.7773,860.5,123.7773,854.5,123.7773" style="stroke:#181818;stroke-width:0.5;"/><line style="stroke:#181818;stroke-width:0.5;" x1="860.5" x2="860.5" y1="123.7773" y2="129.7773"/><line style="stroke:#181818;stroke-width:0.5;" x1="866.5" x2="860.5" y1="129.7773" y2="129.7773"/><text fill="#000000" font-family="sans-serif" font-size="14" lengthAdjust="spacing" textLength="165" x="686.5" y="145.3125">@dcl/snapshots-fetcher</text></g><!--MD5=[51ce5b29dd3532928cb20d83f06e30eb]
entity urnresolver--><g id="elem_urnresolver"><rect fill="#F1F1F1" height="39.4883" rx="2.5" ry="2.5" style="stroke:#181818;stroke-width:0.5;" width="156" x="1314" y="217.7773"/><polygon fill="#F1F1F1" points="1453,222.7773,1453,236.7773,1465,236.7773,1465,228.7773,1459,222.7773,1453,222.7773" style="stroke:#181818;stroke-width:0.5;"/><line style="stroke:#181818;stroke-width:0.5;" x1="1459" x2="1459" y1="222.7773" y2="228.7773"/><line style="stroke:#181818;stroke-width:0.5;" x1="1465" x2="1459" y1="228.7773" y2="228.7773"/><text fill="#000000" font-family="sans-serif" font-size="14" lengthAdjust="spacing" textLength="126" x="1324" y="244.3125">@dcl/urn-resolver</text></g><!--MD5=[4059f9144958a730a0ff360cc593e040]
entity ethconnect--><g id="elem_ethconnect"><rect fill="#F1F1F1" height="39.4883" rx="2.5" ry="2.5" style="stroke:#181818;stroke-width:0.5;" width="114" x="250" y="316.7773"/><polygon fill="#F1F1F1" points="347,321.7773,347,335.7773,359,335.7773,359,327.7773,353,321.7773,347,321.7773" style="stroke:#181818;stroke-width:0.5;"/><line style="stroke:#181818;stroke-width:0.5;" x1="353" x2="353" y1="321.7773" y2="327.7773"/><line style="stroke:#181818;stroke-width:0.5;" x1="359" x2="353" y1="327.7773" y2="327.7773"/><text fill="#000000" font-family="sans-serif" font-size="14" lengthAdjust="spacing" textLength="84" x="260" y="343.3125">eth-connect</text></g><!--MD5=[653231390bd993b1a6fb767479edfb21]
entity contenthashtree--><g id="elem_contenthashtree"><rect fill="#F1F1F1" height="39.4883" rx="2.5" ry="2.5" style="stroke:#181818;stroke-width:0.5;" width="197" x="1081.5" y="217.7773"/><polygon fill="#F1F1F1" points="1261.5,222.7773,1261.5,236.7773,1273.5,236.7773,1273.5,228.7773,1267.5,222.7773,1261.5,222.7773" style="stroke:#181818;stroke-width:0.5;"/><line style="stroke:#181818;stroke-width:0.5;" x1="1267.5" x2="1267.5" y1="222.7773" y2="228.7773"/><line style="stroke:#181818;stroke-width:0.5;" x1="1273.5" x2="1267.5" y1="228.7773" y2="228.7773"/><text fill="#000000" font-family="sans-serif" font-size="14" lengthAdjust="spacing" textLength="167" x="1091.5" y="244.3125">@dcl/content-hash-tree</text></g><!--MD5=[412156e8099e6575685a30315695ebe5]
entity catalyststorage--><g id="elem_catalyststorage"><rect fill="#F1F1F1" height="39.4883" rx="2.5" ry="2.5" style="stroke:#181818;stroke-width:0.5;" width="180" x="707" y="217.7773"/><polygon fill="#F1F1F1" points="870,222.7773,870,236.7773,882,236.7773,882,228.7773,876,222.7773,870,222.7773" style="stroke:#181818;stroke-width:0.5;"/><line style="stroke:#181818;stroke-width:0.5;" x1="876" x2="876" y1="222.7773" y2="228.7773"/><line style="stroke:#181818;stroke-width:0.5;" x1="882" x2="876" y1="228.7773" y2="228.7773"/><text fill="#000000" font-family="sans-serif" font-size="14" lengthAdjust="spacing" textLength="150" x="717" y="244.3125">@dcl/catalyst-storage</text></g><!--MD5=[b3ec3b69ca62dc1e36823e15242eebd5]
entity catalystclient--><g id="elem_catalystclient"><rect fill="#F1F1F1" height="39.4883" rx="2.5" ry="2.5" style="stroke:#181818;stroke-width:0.5;" width="154" x="269" y="118.7773"/><polygon fill="#F1F1F1" points="406,123.7773,406,137.7773,418,137.7773,418,129.7773,412,123.7773,406,123.7773" style="stroke:#181818;stroke-width:0.5;"/><line style="stroke:#181818;stroke-width:0.5;" x1="412" x2="412" y1="123.7773" y2="129.7773"/><line style="stroke:#181818;stroke-width:0.5;" x1="418" x2="412" y1="129.7773" y2="129.7773"/><text fill="#000000" font-family="sans-serif" font-size="14" lengthAdjust="spacing" textLength="124" x="279" y="145.3125">dcl-catalyst-client</text></g><!--MD5=[ddfbcfa8a42cff53c7e8cea880dde2de]
entity catalystcommons--><g id="elem_catalystcommons"><rect fill="#F1F1F1" height="39.4883" rx="2.5" ry="2.5" style="stroke:#181818;stroke-width:0.5;" width="184" x="254" y="217.7773"/><polygon fill="#F1F1F1" points="421,222.7773,421,236.7773,433,236.7773,433,228.7773,427,222.7773,421,222.7773" style="stroke:#181818;stroke-width:0.5;"/><line style="stroke:#181818;stroke-width:0.5;" x1="427" x2="427" y1="222.7773" y2="228.7773"/><line style="stroke:#181818;stroke-width:0.5;" x1="433" x2="427" y1="228.7773" y2="228.7773"/><text fill="#000000" font-family="sans-serif" font-size="14" lengthAdjust="spacing" textLength="154" x="264" y="244.3125">dcl-catalyst-commons</text></g><!--MD5=[87b3d513ec33a445c63e0ea6b49a1f65]
link contentserver to catalystapispecs--><g id="link_contentserver_catalystapispecs"><path d="M556.76,52.2173 C458.75,69.8873 275.19,102.9873 168.23,122.2673 " fill="none" id="contentserver-to-catalystapispecs" style="stroke:#181818;stroke-width:1.0;"/><polygon fill="#181818" points="163.2,123.1773,172.7656,125.5224,168.1212,122.293,171.3506,117.6485,163.2,123.1773" style="stroke:#181818;stroke-width:1.0;"/></g><!--MD5=[2b6b1eff89d09ebd21548f5fb234c80b]
link contentserver to catalystcontracts--><g id="link_contentserver_catalystcontracts"><path d="M556.86,43.8173 C479.83,50.2273 350.57,68.2473 252,118.7773 C206.01,142.3473 164.02,186.6873 141.13,213.6473 " fill="none" id="contentserver-to-catalystcontracts" style="stroke:#181818;stroke-width:1.0;"/><polygon fill="#181818" points="137.89,217.4973,146.7498,213.1958,141.1133,213.675,140.6341,208.0385,137.89,217.4973" style="stroke:#181818;stroke-width:1.0;"/></g><!--MD5=[42dc5e0eeb051217eac2591e77e5b187]
link contentserver to contentvalidator--><g id="link_contentserver_contentvalidator"><path d="M689.4,54.5873 C766.82,71.2773 895.23,98.9573 981.93,117.6473 " fill="none" id="contentserver-to-contentvalidator" style="stroke:#181818;stroke-width:1.0;"/><polygon fill="#181818" points="987.06,118.7473,979.1095,112.9345,982.1731,117.6899,977.4176,120.7535,987.06,118.7473" style="stroke:#181818;stroke-width:1.0;"/></g><!--MD5=[5b00effab8240d07ff49847018b51f45]
link contentserver to crypto--><g id="link_contentserver_crypto"><path d="M601.98,58.9773 C584.04,74.9473 558.19,97.9573 539.15,114.8973 " fill="none" id="contentserver-to-crypto" style="stroke:#181818;stroke-width:1.0;"/><polygon fill="#181818" points="534.95,118.6273,544.3334,115.6355,538.6863,115.3046,539.0171,109.6575,534.95,118.6273" style="stroke:#181818;stroke-width:1.0;"/></g><!--MD5=[c90453930419e49875daf3f3f4903f04]
link contentserver to hashing--><g id="link_contentserver_hashing"><path d="M689.18,48.5373 C746.05,58.1373 828.24,78.1873 889,118.7773 C925.7,143.2973 955.2,186.3473 971.11,212.9773 " fill="none" id="contentserver-to-hashing" style="stroke:#181818;stroke-width:1.0;"/><polygon fill="#181818" points="973.73,217.4273,972.6061,207.6428,971.1912,213.1199,965.7141,211.705,973.73,217.4273" style="stroke:#181818;stroke-width:1.0;"/></g><!--MD5=[f2a62e081199c96f5749878c00710bf1]
link contentserver to schemas--><g id="link_contentserver_schemas"><path d="M621.56,59.0673 C618.82,94.9273 612.84,173.0273 609.82,212.4673 " fill="none" id="contentserver-to-schemas" style="stroke:#181818;stroke-width:1.0;"/><polygon fill="#181818" points="609.43,217.5373,614.1123,208.8727,609.8157,212.5522,606.1361,208.2556,609.43,217.5373" style="stroke:#181818;stroke-width:1.0;"/></g><!--MD5=[b4c3e6de4e0cab691978049720343548]
link contentserver to snapshotsfetcher--><g id="link_contentserver_snapshotsfetcher"><path d="M652.11,58.9773 C677.39,75.2173 713.99,98.7273 740.48,115.7473 " fill="none" id="contentserver-to-snapshotsfetcher" style="stroke:#181818;stroke-width:1.0;"/><polygon fill="#181818" points="744.98,118.6273,739.5724,110.3958,740.7741,115.9236,735.2464,117.1252,744.98,118.6273" style="stroke:#181818;stroke-width:1.0;"/></g><!--MD5=[e11dad0a24f5546e763f9dea04c90160]
link contentserver to urnresolver--><g id="link_contentserver_urnresolver"><path d="M689.32,41.5273 C796.37,45.2973 1012.67,60.2273 1185,118.7773 C1252.95,141.8673 1323.97,187.7073 1362.63,214.7973 " fill="none" id="contentserver-to-urnresolver" style="stroke:#181818;stroke-width:1.0;"/><polygon fill="#181818" points="1366.72,217.6873,1361.6566,209.2397,1362.6292,214.8124,1357.0566,215.785,1366.72,217.6873" style="stroke:#181818;stroke-width:1.0;"/></g><!--MD5=[dd7232f6a44bde856a2fa2a059eb9a79]
link contentserver to catalystclient--><g id="link_contentserver_catalystclient"><path d="M569.92,58.8673 C522.38,75.5073 452.82,99.8673 403.87,117.0173 " fill="none" id="contentserver-to-catalystclient" style="stroke:#181818;stroke-width:1.0;"/><polygon fill="#181818" points="398.9,118.7573,408.7172,119.5464,403.6171,117.0992,406.0642,111.9991,398.9,118.7573" style="stroke:#181818;stroke-width:1.0;"/></g><!--MD5=[f9563b62f526630219fad096cfbc74c7]
link catalystclient to catalystcommons--><g id="link_catalystclient_catalystcommons"><path d="M346,157.9773 C346,173.5473 346,195.7973 346,212.6073 " fill="none" id="catalystclient-to-catalystcommons" style="stroke:#181818;stroke-width:1.0;"/><polygon fill="#181818" points="346,217.6273,350,208.6273,346,212.6273,342,208.6273,346,217.6273" style="stroke:#181818;stroke-width:1.0;"/></g><!--MD5=[d2957ecac3ef3de9c0229a8ade92ad2e]
link catalystcontracts to ethconnect--><g id="link_catalystcontracts_ethconnect"><path d="M158.48,256.9773 C189.53,273.3473 234.62,297.1173 266.96,314.1673 " fill="none" id="catalystcontracts-to-ethconnect" style="stroke:#181818;stroke-width:1.0;"/><polygon fill="#181818" points="271.63,316.6273,265.5359,308.8903,267.2076,314.2945,261.8034,315.9661,271.63,316.6273" style="stroke:#181818;stroke-width:1.0;"/></g><!--MD5=[e1dc57b980e59fc1d952ea16d6bf42da]
link contentvalidator to contenthashtree--><g id="link_contentvalidator_contenthashtree"><path d="M1093.63,157.9773 C1111.25,173.9473 1136.62,196.9573 1155.31,213.8973 " fill="none" id="contentvalidator-to-contenthashtree" style="stroke:#181818;stroke-width:1.0;"/><polygon fill="#181818" points="1159.43,217.6273,1155.4526,208.6173,1155.7271,214.2675,1150.0769,214.542,1159.43,217.6273" style="stroke:#181818;stroke-width:1.0;"/></g><!--MD5=[d63034edfbfee8611316721f38a854d3]
link contentvalidator to hashing--><g id="link_contentvalidator_hashing"><path d="M1055.84,157.9773 C1041.19,173.9473 1020.08,196.9573 1004.53,213.8973 " fill="none" id="contentvalidator-to-hashing" style="stroke:#181818;stroke-width:1.0;"/><polygon fill="#181818" points="1001.11,217.6273,1010.136,213.6863,1004.4847,213.938,1004.2331,208.2868,1001.11,217.6273" style="stroke:#181818;stroke-width:1.0;"/></g><!--MD5=[82526a912562210d5adbc121a965e2ad]
link contentvalidator to schemas--><g id="link_contentvalidator_schemas"><path d="M980.02,157.7973 C902.39,173.3973 788.87,196.4973 690,217.7773 C685.9,218.6573 681.68,219.5773 677.43,220.5073 " fill="none" id="contentvalidator-to-schemas" style="stroke:#181818;stroke-width:1.0;"/><polygon fill="#181818" points="672.43,221.6173,682.0779,223.5966,677.3139,220.5463,680.3643,215.7823,672.43,221.6173" style="stroke:#181818;stroke-width:1.0;"/></g><!--MD5=[a8260f98ed4bc1c2955c11afbcf76ddf]
link contentvalidator to urnresolver--><g id="link_contentvalidator_urnresolver"><path d="M1134.13,157.8673 C1189.1,174.5773 1269.63,199.0673 1326.04,216.2173 " fill="none" id="contentvalidator-to-urnresolver" style="stroke:#181818;stroke-width:1.0;"/><polygon fill="#181818" points="1331.08,217.7573,1323.6407,211.3031,1326.298,216.297,1321.3041,218.9543,1331.08,217.7573" style="stroke:#181818;stroke-width:1.0;"/></g><!--MD5=[c45f192cafb334e2ccb06f34add13204]
link crypto to schemas--><g id="link_crypto_schemas"><path d="M532.12,157.9773 C547.6,173.9473 569.89,196.9573 586.31,213.8973 " fill="none" id="crypto-to-schemas" style="stroke:#181818;stroke-width:1.0;"/><polygon fill="#181818" points="589.93,217.6273,586.5438,208.3789,586.4522,214.035,580.7961,213.9434,589.93,217.6273" style="stroke:#181818;stroke-width:1.0;"/></g><!--MD5=[d91e2e6d0ca713fa69b3dc7b86c4c820]
link crypto to ethconnect--><g id="link_crypto_ethconnect"><path d="M508.73,158.1273 C500.87,183.3173 483.94,228.0973 456,256.7773 C430.83,282.6273 395.3,301.7873 365.25,314.7173 " fill="none" id="crypto-to-ethconnect" style="stroke:#181818;stroke-width:1.0;"/><polygon fill="#181818" points="360.48,316.7373,370.3276,316.8945,365.0809,314.7798,367.1956,309.5331,360.48,316.7373" style="stroke:#181818;stroke-width:1.0;"/></g><!--MD5=[65b1e695f05aeb07568e7f38ee1cf26e]
link snapshotsfetcher to catalyststorage--><g id="link_snapshotsfetcher_catalyststorage"><path d="M778.43,157.9773 C782.13,173.5473 787.4,195.7973 791.39,212.6073 " fill="none" id="snapshotsfetcher-to-catalyststorage" style="stroke:#181818;stroke-width:1.0;"/><polygon fill="#181818" points="792.58,217.6273,794.4186,207.9516,791.438,212.7595,786.6301,209.7789,792.58,217.6273" style="stroke:#181818;stroke-width:1.0;"/></g><!--MD5=[7204b6c130a88f094f15ecb6a718e02f]
link snapshotsfetcher to hashing--><g id="link_snapshotsfetcher_hashing"><path d="M814.49,157.9773 C850.08,174.4173 901.81,198.3173 938.75,215.3773 " fill="none" id="snapshotsfetcher-to-hashing" style="stroke:#181818;stroke-width:1.0;"/><polygon fill="#181818" points="943.63,217.6273,937.139,210.2201,939.0915,215.5293,933.7822,217.4818,943.63,217.6273" style="stroke:#181818;stroke-width:1.0;"/></g><!--MD5=[65d9e53c1e8539e9dd5b07116bd781b3]
link snapshotsfetcher to schemas--><g id="link_snapshotsfetcher_schemas"><path d="M741.99,157.9773 C714.09,174.2873 673.64,197.9273 644.49,214.9573 " fill="none" id="snapshotsfetcher-to-schemas" style="stroke:#181818;stroke-width:1.0;"/><polygon fill="#181818" points="639.91,217.6273,649.6973,216.5275,644.2237,215.0991,645.6521,209.6256,639.91,217.6273" style="stroke:#181818;stroke-width:1.0;"/></g><!--MD5=[6d3fc954244d9c93ccaab8d95c03cf3e]
link catalystclient to catalystcontracts--><g id="link_catalystclient_catalystcontracts"><path d="M303.27,157.8673 C265.23,174.4073 209.67,198.5773 170.31,215.6973 " fill="none" id="catalystclient-to-catalystcontracts" style="stroke:#181818;stroke-width:1.0;"/><polygon fill="#181818" points="165.59,217.7573,175.4384,217.8517,170.1783,215.7705,172.2595,210.5104,165.59,217.7573" style="stroke:#181818;stroke-width:1.0;"/></g><!--MD5=[fae4f58708f2ae2dc8ce2cfb5892c384]
@startuml
header "Content Server"
artifact "content-server" as contentserver
artifact "catalyst-api-specs" as catalystapispecs
artifact "@dcl/catalyst-contracts" as catalystcontracts
artifact "@dcl/content-validator" as contentvalidator
artifact "@dcl/crypto" as crypto
artifact "@dcl/hashing" as hashing
artifact "@dcl/schemas" as schemas
artifact "@dcl/snapshots-fetcher" as snapshotsfetcher
artifact "@dcl/urn-resolver" as urnresolver
artifact "eth-connect" as ethconnect
artifact "@dcl/content-hash-tree" as contenthashtree
artifact "@dcl/catalyst-storage" as catalyststorage
artifact "dcl-catalyst-client" as catalystclient
artifact "dcl-catalyst-commons" as catalystcommons

contentserver - -> catalystapispecs
contentserver - -> catalystcontracts
contentserver - -> contentvalidator
contentserver - -> crypto
contentserver - -> hashing
contentserver - -> schemas
contentserver - -> snapshotsfetcher
contentserver - -> urnresolver
contentserver - -> catalystclient
catalystclient - -> catalystcommons
catalystcontracts - -> ethconnect
contentvalidator - -> contenthashtree
contentvalidator - -> hashing
contentvalidator - -> schemas
contentvalidator - -> urnresolver
crypto - -> schemas
crypto - -> ethconnect
snapshotsfetcher - -> catalyststorage
snapshotsfetcher - -> hashing
snapshotsfetcher - -> schemas
catalystclient - -> catalystcontracts

newpage
header "Lambdas Server"
artifact "lambdas-server" as lambdasserver
artifact "catalyst-api-specs" as catalystapispecs
artifact "@dcl/catalyst-contracts" as catalystcontracts
artifact "@dcl/crypto" as crypto
artifact "@dcl/schemas" as schemas
artifact "@dcl/urn-resolver" as urnresolver
artifact "eth-connect" as ethconnect
artifact "dcl-catalyst-client" as catalystclient
artifact "dcl-catalyst-commons" as catalystcommons

lambdasserver - -> catalystapispecs
lambdasserver - -> catalystcontracts
lambdasserver - -> crypto
lambdasserver - -> schemas
lambdasserver - -> urnresolver
lambdasserver - -> catalystclient
lambdasserver - -> catalystcommons
catalystclient - -> catalystcommons
catalystclient - -> catalystcontracts
catalystcontracts - -> ethconnect
crypto - -> schemas
crypto - -> ethconnect

@enduml

PlantUML version 1.2022.6(Tue Jun 21 14:34:49 ART 2022)
(GPL source distribution)
Java Runtime: OpenJDK Runtime Environment
JVM: OpenJDK 64-Bit Server VM
Default Encoding: UTF-8
Language: en
Country: AR
--></g></svg>