<?xml version="1.0" encoding="UTF-8" standalone="no"?><svg xmlns="http://www.w3.org/2000/svg" xmlns:xlink="http://www.w3.org/1999/xlink" contentStyleType="text/css" height="262px" preserveAspectRatio="none" style="width:1619px;height:262px;background:#FFFFFF;" version="1.1" viewBox="0 0 1619 262" width="1619px" zoomAndPan="magnify"><defs/><g><rect height="11.6406" style="stroke:#00000000;stroke-width:1.0;fill:none;" width="82" x="1523" y="0"/><text fill="#888888" font-family="sans-serif" font-size="10" lengthAdjust="spacing" textLength="82" x="1523" y="9.2822">Content Server</text><!--MD5=[8057ce764d90030538cfb75b46618f6d]
entity contentserver--><g id="elem_contentserver"><rect fill="#F1F1F1" height="39.2969" rx="2.5" ry="2.5" style="stroke:#181818;stroke-width:0.5;" width="139" x="697.5" y="19.6406"/><polygon fill="#F1F1F1" points="819.5,24.6406,819.5,38.6406,831.5,38.6406,831.5,30.6406,825.5,24.6406,819.5,24.6406" style="stroke:#181818;stroke-width:0.5;"/><line style="stroke:#181818;stroke-width:0.5;" x1="825.5" x2="825.5" y1="24.6406" y2="30.6406"/><line style="stroke:#181818;stroke-width:0.5;" x1="831.5" x2="825.5" y1="30.6406" y2="30.6406"/><text fill="#000000" font-family="sans-serif" font-size="14" lengthAdjust="spacing" textLength="109" x="707.5" y="45.6357">content-server</text></g><!--MD5=[549b2c0bab588137aeb052f9dbbc6263]
entity catalystapispecs--><g id="elem_catalystapispecs"><rect fill="#F1F1F1" height="39.2969" rx="2.5" ry="2.5" style="stroke:#181818;stroke-width:0.5;" width="162" x="7" y="118.6406"/><polygon fill="#F1F1F1" points="152,123.6406,152,137.6406,164,137.6406,164,129.6406,158,123.6406,152,123.6406" style="stroke:#181818;stroke-width:0.5;"/><line style="stroke:#181818;stroke-width:0.5;" x1="158" x2="158" y1="123.6406" y2="129.6406"/><line style="stroke:#181818;stroke-width:0.5;" x1="164" x2="158" y1="129.6406" y2="129.6406"/><text fill="#000000" font-family="sans-serif" font-size="14" lengthAdjust="spacing" textLength="132" x="17" y="144.6357">catalyst-api-specs</text></g><!--MD5=[126f4549bd88685c817470eb62ade7f4]
entity catalystcontracts--><g id="elem_catalystcontracts"><rect fill="#F1F1F1" height="39.2969" rx="2.5" ry="2.5" style="stroke:#181818;stroke-width:0.5;" width="202" x="204" y="118.6406"/><polygon fill="#F1F1F1" points="389,123.6406,389,137.6406,401,137.6406,401,129.6406,395,123.6406,389,123.6406" style="stroke:#181818;stroke-width:0.5;"/><line style="stroke:#181818;stroke-width:0.5;" x1="395" x2="395" y1="123.6406" y2="129.6406"/><line style="stroke:#181818;stroke-width:0.5;" x1="401" x2="395" y1="129.6406" y2="129.6406"/><text fill="#000000" font-family="sans-serif" font-size="14" lengthAdjust="spacing" textLength="172" x="214" y="144.6357">@dcl/catalyst-contracts</text></g><!--MD5=[a70e63df2b0daf121c6de1d3f5144ff5]
entity contentvalidator--><g id="elem_contentvalidator"><rect fill="#F1F1F1" height="39.2969" rx="2.5" ry="2.5" style="stroke:#181818;stroke-width:0.5;" width="197" x="981.5" y="118.6406"/><polygon fill="#F1F1F1" points="1161.5,123.6406,1161.5,137.6406,1173.5,137.6406,1173.5,129.6406,1167.5,123.6406,1161.5,123.6406" style="stroke:#181818;stroke-width:0.5;"/><line style="stroke:#181818;stroke-width:0.5;" x1="1167.5" x2="1167.5" y1="123.6406" y2="129.6406"/><line style="stroke:#181818;stroke-width:0.5;" x1="1173.5" x2="1167.5" y1="129.6406" y2="129.6406"/><text fill="#000000" font-family="sans-serif" font-size="14" lengthAdjust="spacing" textLength="167" x="991.5" y="144.6357">@dcl/content-validator</text></g><!--MD5=[6cc4354bc172bfab4bc5d504e938f9dd]
entity crypto--><g id="elem_crypto"><rect fill="#F1F1F1" height="39.2969" rx="2.5" ry="2.5" style="stroke:#181818;stroke-width:0.5;" width="118" x="441" y="118.6406"/><polygon fill="#F1F1F1" points="542,123.6406,542,137.6406,554,137.6406,554,129.6406,548,123.6406,542,123.6406" style="stroke:#181818;stroke-width:0.5;"/><line style="stroke:#181818;stroke-width:0.5;" x1="548" x2="548" y1="123.6406" y2="129.6406"/><line style="stroke:#181818;stroke-width:0.5;" x1="554" x2="548" y1="129.6406" y2="129.6406"/><text fill="#000000" font-family="sans-serif" font-size="14" lengthAdjust="spacing" textLength="88" x="451" y="144.6357">@dcl/crypto</text></g><!--MD5=[50c3cd0b79a81c36198e823695041bb3]
entity hashing--><g id="elem_hashing"><rect fill="#F1F1F1" height="39.2969" rx="2.5" ry="2.5" style="stroke:#181818;stroke-width:0.5;" width="125" x="824.5" y="217.6406"/><polygon fill="#F1F1F1" points="932.5,222.6406,932.5,236.6406,944.5,236.6406,944.5,228.6406,938.5,222.6406,932.5,222.6406" style="stroke:#181818;stroke-width:0.5;"/><line style="stroke:#181818;stroke-width:0.5;" x1="938.5" x2="938.5" y1="222.6406" y2="228.6406"/><line style="stroke:#181818;stroke-width:0.5;" x1="944.5" x2="938.5" y1="228.6406" y2="228.6406"/><text fill="#000000" font-family="sans-serif" font-size="14" lengthAdjust="spacing" textLength="95" x="834.5" y="243.6357">@dcl/hashing</text></g><!--MD5=[f50278905982483810086d91fb8fa489]
entity schemas--><g id="elem_schemas"><rect fill="#F1F1F1" height="39.2969" rx="2.5" ry="2.5" style="stroke:#181818;stroke-width:0.5;" width="132" x="434" y="217.6406"/><polygon fill="#F1F1F1" points="549,222.6406,549,236.6406,561,236.6406,561,228.6406,555,222.6406,549,222.6406" style="stroke:#181818;stroke-width:0.5;"/><line style="stroke:#181818;stroke-width:0.5;" x1="555" x2="555" y1="222.6406" y2="228.6406"/><line style="stroke:#181818;stroke-width:0.5;" x1="561" x2="555" y1="228.6406" y2="228.6406"/><text fill="#000000" font-family="sans-serif" font-size="14" lengthAdjust="spacing" textLength="102" x="444" y="243.6357">@dcl/schemas</text></g><!--MD5=[a6918ae6e4f08324b235002e20f5f2a0]
entity snapshotsfetcher--><g id="elem_snapshotsfetcher"><rect fill="#F1F1F1" height="39.2969" rx="2.5" ry="2.5" style="stroke:#181818;stroke-width:0.5;" width="203" x="665.5" y="118.6406"/><polygon fill="#F1F1F1" points="851.5,123.6406,851.5,137.6406,863.5,137.6406,863.5,129.6406,857.5,123.6406,851.5,123.6406" style="stroke:#181818;stroke-width:0.5;"/><line style="stroke:#181818;stroke-width:0.5;" x1="857.5" x2="857.5" y1="123.6406" y2="129.6406"/><line style="stroke:#181818;stroke-width:0.5;" x1="863.5" x2="857.5" y1="129.6406" y2="129.6406"/><text fill="#000000" font-family="sans-serif" font-size="14" lengthAdjust="spacing" textLength="173" x="675.5" y="144.6357">@dcl/snapshots-fetcher</text></g><!--MD5=[51ce5b29dd3532928cb20d83f06e30eb]
entity urnresolver--><g id="elem_urnresolver"><rect fill="#F1F1F1" height="39.2969" rx="2.5" ry="2.5" style="stroke:#181818;stroke-width:0.5;" width="157" x="1224.5" y="217.6406"/><polygon fill="#F1F1F1" points="1364.5,222.6406,1364.5,236.6406,1376.5,236.6406,1376.5,228.6406,1370.5,222.6406,1364.5,222.6406" style="stroke:#181818;stroke-width:0.5;"/><line style="stroke:#181818;stroke-width:0.5;" x1="1370.5" x2="1370.5" y1="222.6406" y2="228.6406"/><line style="stroke:#181818;stroke-width:0.5;" x1="1376.5" x2="1370.5" y1="228.6406" y2="228.6406"/><text fill="#000000" font-family="sans-serif" font-size="14" lengthAdjust="spacing" textLength="127" x="1234.5" y="243.6357">@dcl/urn-resolver</text></g><!--MD5=[4059f9144958a730a0ff360cc593e040]
entity ethconnect--><g id="elem_ethconnect"><rect fill="#F1F1F1" height="39.2969" rx="2.5" ry="2.5" style="stroke:#181818;stroke-width:0.5;" width="120" x="262" y="217.6406"/><polygon fill="#F1F1F1" points="365,222.6406,365,236.6406,377,236.6406,377,228.6406,371,222.6406,365,222.6406" style="stroke:#181818;stroke-width:0.5;"/><line style="stroke:#181818;stroke-width:0.5;" x1="371" x2="371" y1="222.6406" y2="228.6406"/><line style="stroke:#181818;stroke-width:0.5;" x1="377" x2="371" y1="228.6406" y2="228.6406"/><text fill="#000000" font-family="sans-serif" font-size="14" lengthAdjust="spacing" textLength="90" x="272" y="243.6357">eth-connect</text></g><!--MD5=[653231390bd993b1a6fb767479edfb21]
entity contenthashtree--><g id="elem_contenthashtree"><rect fill="#F1F1F1" height="39.2969" rx="2.5" ry="2.5" style="stroke:#181818;stroke-width:0.5;" width="204" x="985" y="217.6406"/><polygon fill="#F1F1F1" points="1172,222.6406,1172,236.6406,1184,236.6406,1184,228.6406,1178,222.6406,1172,222.6406" style="stroke:#181818;stroke-width:0.5;"/><line style="stroke:#181818;stroke-width:0.5;" x1="1178" x2="1178" y1="222.6406" y2="228.6406"/><line style="stroke:#181818;stroke-width:0.5;" x1="1184" x2="1178" y1="228.6406" y2="228.6406"/><text fill="#000000" font-family="sans-serif" font-size="14" lengthAdjust="spacing" textLength="174" x="995" y="243.6357">@dcl/content-hash-tree</text></g><!--MD5=[412156e8099e6575685a30315695ebe5]
entity catalyststorage--><g id="elem_catalyststorage"><rect fill="#F1F1F1" height="39.2969" rx="2.5" ry="2.5" style="stroke:#181818;stroke-width:0.5;" width="188" x="601" y="217.6406"/><polygon fill="#F1F1F1" points="772,222.6406,772,236.6406,784,236.6406,784,228.6406,778,222.6406,772,222.6406" style="stroke:#181818;stroke-width:0.5;"/><line style="stroke:#181818;stroke-width:0.5;" x1="778" x2="778" y1="222.6406" y2="228.6406"/><line style="stroke:#181818;stroke-width:0.5;" x1="784" x2="778" y1="228.6406" y2="228.6406"/><text fill="#000000" font-family="sans-serif" font-size="14" lengthAdjust="spacing" textLength="158" x="611" y="243.6357">@dcl/catalyst-storage</text></g><!--MD5=[b3ec3b69ca62dc1e36823e15242eebd5]
entity catalystclient--><g id="elem_catalystclient"><rect fill="#F1F1F1" height="39.2969" rx="2.5" ry="2.5" style="stroke:#181818;stroke-width:0.5;" width="161" x="1358.5" y="118.6406"/><polygon fill="#F1F1F1" points="1502.5,123.6406,1502.5,137.6406,1514.5,137.6406,1514.5,129.6406,1508.5,123.6406,1502.5,123.6406" style="stroke:#181818;stroke-width:0.5;"/><line style="stroke:#181818;stroke-width:0.5;" x1="1508.5" x2="1508.5" y1="123.6406" y2="129.6406"/><line style="stroke:#181818;stroke-width:0.5;" x1="1514.5" x2="1508.5" y1="129.6406" y2="129.6406"/><text fill="#000000" font-family="sans-serif" font-size="14" lengthAdjust="spacing" textLength="131" x="1368.5" y="144.6357">dcl-catalyst-client</text></g><!--MD5=[ddfbcfa8a42cff53c7e8cea880dde2de]
entity catalystcommons--><g id="elem_catalystcommons"><rect fill="#F1F1F1" height="39.2969" rx="2.5" ry="2.5" style="stroke:#181818;stroke-width:0.5;" width="190" x="1417" y="217.6406"/><polygon fill="#F1F1F1" points="1590,222.6406,1590,236.6406,1602,236.6406,1602,228.6406,1596,222.6406,1590,222.6406" style="stroke:#181818;stroke-width:0.5;"/><line style="stroke:#181818;stroke-width:0.5;" x1="1596" x2="1596" y1="222.6406" y2="228.6406"/><line style="stroke:#181818;stroke-width:0.5;" x1="1602" x2="1596" y1="228.6406" y2="228.6406"/><text fill="#000000" font-family="sans-serif" font-size="14" lengthAdjust="spacing" textLength="160" x="1427" y="243.6357">dcl-catalyst-commons</text></g><!--MD5=[87b3d513ec33a445c63e0ea6b49a1f65]
link contentserver to catalystapispecs--><g id="link_contentserver_catalystapispecs"><path d="M697.068,48.3906 C587.757,61.5566 369.874,88.8846 186,118.6406 C182.154,119.2626 178.228,119.9186 174.264,120.5976 " fill="none" id="contentserver-to-catalystapispecs" style="stroke:#181818;stroke-width:1.0;"/><polygon fill="#181818" points="169.226,121.4686,178.7764,123.875,174.1527,120.6158,177.4119,115.9922,169.226,121.4686" style="stroke:#181818;stroke-width:1.0;"/></g><!--MD5=[2b6b1eff89d09ebd21548f5fb234c80b]
link contentserver to catalystcontracts--><g id="link_contentserver_catalystcontracts"><path d="M697.334,54.7676 C617.671,71.4936 486.878,98.9546 398.423,117.5256 " fill="none" id="contentserver-to-catalystcontracts" style="stroke:#181818;stroke-width:1.0;"/><polygon fill="#181818" points="393.453,118.5696,403.0834,120.6326,398.3461,117.541,401.4376,112.8037,393.453,118.5696" style="stroke:#181818;stroke-width:1.0;"/></g><!--MD5=[42dc5e0eeb051217eac2591e77e5b187]
link contentserver to contentvalidator--><g id="link_contentserver_contentvalidator"><path d="M826.979,58.7286 C880.912,75.4426 959.935,99.9316 1015.28,117.0836 " fill="none" id="contentserver-to-contentvalidator" style="stroke:#181818;stroke-width:1.0;"/><polygon fill="#181818" points="1020.22,118.6156,1012.8139,112.1233,1015.4456,117.1308,1010.4381,119.7624,1020.22,118.6156" style="stroke:#181818;stroke-width:1.0;"/></g><!--MD5=[5b00effab8240d07ff49847018b51f45]
link contentserver to crypto--><g id="link_contentserver_crypto"><path d="M715.836,58.7286 C670.014,75.3756 602.962,99.7346 555.78,116.8756 " fill="none" id="contentserver-to-crypto" style="stroke:#181818;stroke-width:1.0;"/><polygon fill="#181818" points="550.991,118.6156,560.8159,119.3027,555.6906,116.9086,558.0847,111.7834,550.991,118.6156" style="stroke:#181818;stroke-width:1.0;"/></g><!--MD5=[c90453930419e49875daf3f3f4903f04]
link contentserver to hashing--><g id="link_contentserver_hashing"><path d="M815.453,58.6666 C841.347,71.3386 870.924,90.9186 886,118.6406 C901.832,147.7536 897.974,187.2309 893.04,212.1971 " fill="none" id="contentserver-to-hashing" style="stroke:#181818;stroke-width:1.0;"/><polygon fill="#181818" points="891.978,217.2954,897.7303,209.301,892.9983,212.4006,889.8986,207.6686,891.978,217.2954" style="stroke:#181818;stroke-width:1.0;"/></g><!--MD5=[f2a62e081199c96f5749878c00710bf1]
link contentserver to schemas--><g id="link_contentserver_schemas"><path d="M737.169,58.7896 C712.8,74.2686 677.661,97.1466 648,118.6406 C604.196,150.3836 555.42,189.9822 526.25,214.1476 " fill="none" id="contentserver-to-schemas" style="stroke:#181818;stroke-width:1.0;"/><polygon fill="#181818" points="522.091,217.5982,531.5714,214.9294,525.9388,214.4054,526.4628,208.7729,522.091,217.5982" style="stroke:#181818;stroke-width:1.0;"/></g><!--MD5=[b4c3e6de4e0cab691978049720343548]
link contentserver to snapshotsfetcher--><g id="link_contentserver_snapshotsfetcher"><path d="M767,58.8436 C767,74.4096 767,96.6616 767,113.4676 " fill="none" id="contentserver-to-snapshotsfetcher" style="stroke:#181818;stroke-width:1.0;"/><polygon fill="#181818" points="767,118.4956,771,109.4956,767,113.4956,763,109.4956,767,118.4956" style="stroke:#181818;stroke-width:1.0;"/></g><!--MD5=[e11dad0a24f5546e763f9dea04c90160]
link contentserver to urnresolver--><g id="link_contentserver_urnresolver"><path d="M836.54,39.4946 C925.363,41.5426 1081.3,54.9966 1196,118.6406 C1237.22,141.5116 1271.08,186.1938 1289.04,213.3848 " fill="none" id="contentserver-to-urnresolver" style="stroke:#181818;stroke-width:1.0;"/><polygon fill="#181818" points="1291.79,217.5926,1290.2205,207.8696,1289.0571,213.4056,1283.5212,212.2422,1291.79,217.5926" style="stroke:#181818;stroke-width:1.0;"/></g><!--MD5=[dd7232f6a44bde856a2fa2a059eb9a79]
link contentserver to catalystclient--><g id="link_contentserver_catalystclient"><path d="M836.699,50.2016 C960.594,68.0846 1218.76,105.3496 1353.29,124.7696 " fill="none" id="contentserver-to-catalystclient" style="stroke:#181818;stroke-width:1.0;"/><polygon fill="#181818" points="1358.42,125.5096,1350.0838,120.2649,1353.4713,124.7953,1348.9409,128.1828,1358.42,125.5096" style="stroke:#181818;stroke-width:1.0;"/></g><!--MD5=[f9563b62f526630219fad096cfbc74c7]
link catalystclient to catalystcommons--><g id="link_catalystclient_catalystcommons"><path d="M1453.08,157.8432 C1464.99,173.6778 1482.12,196.431 1494.84,213.3323 " fill="none" id="catalystclient-to-catalystcommons" style="stroke:#181818;stroke-width:1.0;"/><polygon fill="#181818" points="1497.97,217.4954,1495.7599,207.8977,1494.9658,213.4986,1489.365,212.7045,1497.97,217.4954" style="stroke:#181818;stroke-width:1.0;"/></g><!--MD5=[d2957ecac3ef3de9c0229a8ade92ad2e]
link catalystcontracts to ethconnect--><g id="link_catalystcontracts_ethconnect"><path d="M308.278,157.8432 C311.006,173.4094 314.906,195.6616 317.851,212.468 " fill="none" id="catalystcontracts-to-ethconnect" style="stroke:#181818;stroke-width:1.0;"/><polygon fill="#181818" points="318.732,217.4954,321.1185,207.9401,317.869,212.5705,313.2386,209.3209,318.732,217.4954" style="stroke:#181818;stroke-width:1.0;"/></g><!--MD5=[e1dc57b980e59fc1d952ea16d6bf42da]
link contentvalidator to contenthashtree--><g id="link_contentvalidator_contenthashtree"><path d="M1081.35,157.8432 C1082.47,173.4094 1084.08,195.6616 1085.29,212.468 " fill="none" id="contentvalidator-to-contenthashtree" style="stroke:#181818;stroke-width:1.0;"/><polygon fill="#181818" points="1085.65,217.4954,1088.9914,208.2307,1085.2899,212.5084,1081.0122,208.8069,1085.65,217.4954" style="stroke:#181818;stroke-width:1.0;"/></g><!--MD5=[d63034edfbfee8611316721f38a854d3]
link contentvalidator to hashing--><g id="link_contentvalidator_hashing"><path d="M1042.79,157.8432 C1010.08,174.2816 962.537,198.1764 928.586,215.2397 " fill="none" id="contentvalidator-to-hashing" style="stroke:#181818;stroke-width:1.0;"/><polygon fill="#181818" points="924.098,217.4954,933.9358,217.0297,928.5659,215.251,930.3447,209.881,924.098,217.4954" style="stroke:#181818;stroke-width:1.0;"/></g><!--MD5=[82526a912562210d5adbc121a965e2ad]
link contentvalidator to schemas--><g id="link_contentvalidator_schemas"><path d="M981.356,152.9776 C881.047,167.4642 721.278,191.6845 584,217.6406 C579.887,218.4183 575.668,219.2474 571.414,220.1075 " fill="none" id="contentvalidator-to-schemas" style="stroke:#181818;stroke-width:1.0;"/><polygon fill="#181818" points="566.41,221.1301,576.0288,223.2465,571.3087,220.1287,574.4265,215.4086,566.41,221.1301" style="stroke:#181818;stroke-width:1.0;"/></g><!--MD5=[a8260f98ed4bc1c2955c11afbcf76ddf]
link contentvalidator to urnresolver--><g id="link_contentvalidator_urnresolver"><path d="M1112.69,157.8432 C1147.57,174.3823 1202.84,198.4693 1245.02,215.5524 " fill="none" id="contentvalidator-to-urnresolver" style="stroke:#181818;stroke-width:1.0;"/><polygon fill="#181818" points="1249.84,217.4954,1242.9723,210.436,1245.1984,215.6365,1239.998,217.8625,1249.84,217.4954" style="stroke:#181818;stroke-width:1.0;"/></g><!--MD5=[a8260f98ed4bc1c2955c11afbcf76ddf]
link contentvalidator to urnresolver--><g id="link_contentvalidator_urnresolver"><path d="M1133.63,157.7284 C1174.84,174.207 1230.24,198.2438 1266.52,215.3542 " fill="none" id="contentvalidator-to-urnresolver-1" style="stroke:#181818;stroke-width:1.0;"/><polygon fill="#181818" points="1271.29,217.6157,1264.8726,210.1446,1266.7724,215.4729,1261.4441,217.3728,1271.29,217.6157" style="stroke:#181818;stroke-width:1.0;"/></g><!--MD5=[c45f192cafb334e2ccb06f34add13204]
link crypto to schemas--><g id="link_crypto_schemas"><path d="M500,157.8432 C500,173.4094 500,195.6616 500,212.468 " fill="none" id="crypto-to-schemas" style="stroke:#181818;stroke-width:1.0;"/><polygon fill="#181818" points="500,217.4954,504,208.4954,500,212.4954,496,208.4954,500,217.4954" style="stroke:#181818;stroke-width:1.0;"/></g><!--MD5=[d91e2e6d0ca713fa69b3dc7b86c4c820]
link crypto to ethconnect--><g id="link_crypto_ethconnect"><path d="M465.68,157.8432 C435.638,174.2145 392.024,197.9815 360.738,215.0304 " fill="none" id="crypto-to-ethconnect" style="stroke:#181818;stroke-width:1.0;"/><polygon fill="#181818" points="356.215,217.4954,366.0317,216.7007,360.6053,215.1026,362.2033,209.6762,356.215,217.4954" style="stroke:#181818;stroke-width:1.0;"/></g><!--MD5=[65b1e695f05aeb07568e7f38ee1cf26e]
link snapshotsfetcher to catalyststorage--><g id="link_snapshotsfetcher_catalyststorage"><path d="M753.118,157.8432 C741.364,173.6778 724.475,196.431 711.93,213.3323 " fill="none" id="snapshotsfetcher-to-catalyststorage" style="stroke:#181818;stroke-width:1.0;"/><polygon fill="#181818" points="708.84,217.4954,717.4164,212.6534,711.8204,213.4808,710.993,207.8848,708.84,217.4954" style="stroke:#181818;stroke-width:1.0;"/></g><!--MD5=[7204b6c130a88f094f15ecb6a718e02f]
link snapshotsfetcher to hashing--><g id="link_snapshotsfetcher_hashing"><path d="M790.137,157.8432 C810.058,173.9461 838.831,197.2042 859.84,214.1866 " fill="none" id="snapshotsfetcher-to-hashing" style="stroke:#181818;stroke-width:1.0;"/><polygon fill="#181818" points="863.934,217.4954,859.4487,208.7272,860.0453,214.3525,854.42,214.9491,863.934,217.4954" style="stroke:#181818;stroke-width:1.0;"/></g><!--MD5=[65d9e53c1e8539e9dd5b07116bd781b3]
link snapshotsfetcher to schemas--><g id="link_snapshotsfetcher_schemas"><path d="M715.836,157.7284 C670.014,174.3751 602.962,198.7351 555.78,215.8758 " fill="none" id="snapshotsfetcher-to-schemas" style="stroke:#181818;stroke-width:1.0;"/><polygon fill="#181818" points="550.991,217.6157,560.8159,218.3024,555.6905,215.9085,558.0844,210.7832,550.991,217.6157" style="stroke:#181818;stroke-width:1.0;"/></g><!--MD5=[979b70876433cca727a426bd8e48af23]
@startuml
header "Content Server"
artifact "content-server" as contentserver
artifact "catalyst-api-specs" as catalystapispecs
artifact "@dcl/catalyst-contracts" as catalystcontracts
artifact "@dcl/content-validator" as contentvalidator
artifact "@dcl/crypto" as crypto
artifact "@dcl/hashing" as hashing
artifact "@dcl/schemas" as schemas
artifact "@dcl/snapshots-fetcher" as snapshotsfetcher
artifact "@dcl/urn-resolver" as urnresolver
artifact "eth-connect" as ethconnect
artifact "@dcl/content-hash-tree" as contenthashtree
artifact "@dcl/catalyst-storage" as catalyststorage
artifact "dcl-catalyst-client" as catalystclient
artifact "dcl-catalyst-commons" as catalystcommons

contentserver - -> catalystapispecs
contentserver - -> catalystcontracts
contentserver - -> contentvalidator
contentserver - -> crypto
contentserver - -> hashing
contentserver - -> schemas
contentserver - -> snapshotsfetcher
contentserver - -> urnresolver
contentserver - -> catalystclient
catalystclient - -> catalystcommons
catalystcontracts - -> ethconnect
contentvalidator - -> contenthashtree
contentvalidator - -> hashing
contentvalidator - -> schemas
contentvalidator - -> urnresolver
contentvalidator - -> urnresolver
crypto - -> schemas
crypto - -> ethconnect
snapshotsfetcher - -> catalyststorage
snapshotsfetcher - -> hashing
snapshotsfetcher - -> schemas

newpage
header "Lambdas Server"
artifact "lambdas-server" as lambdasserver
artifact "catalyst-api-specs" as catalystapispecs
artifact "@dcl/catalyst-contracts" as catalystcontracts
artifact "@dcl/crypto" as crypto
artifact "@dcl/schemas" as schemas
artifact "@dcl/urn-resolver" as urnresolver
artifact "eth-connect" as ethconnect
artifact "dcl-catalyst-client" as catalystclient
artifact "dcl-catalyst-commons" as catalystcommons

lambdasserver - -> catalystapispecs
lambdasserver - -> catalystcontracts
lambdasserver - -> crypto
lambdasserver - -> schemas
lambdasserver - -> urnresolver
lambdasserver - -> catalystclient
lambdasserver - -> catalystcommons
catalystclient - -> catalystcommons
catalystcontracts - -> ethconnect
crypto - -> schemas
crypto - -> ethconnect
@enduml

PlantUML version 1.2022.7beta2(Unknown compile time)
(GPL source distribution)
Java Runtime: Java(TM) SE Runtime Environment
JVM: Java HotSpot(TM) 64-Bit Server VM
Default Encoding: UTF-8
Language: en
Country: US
--></g></svg>