<?xml version="1.0" encoding="UTF-8" standalone="no"?><svg xmlns="http://www.w3.org/2000/svg" xmlns:xlink="http://www.w3.org/1999/xlink" contentStyleType="text/css" height="362px" preserveAspectRatio="none" style="width:924px;height:362px;background:#FFFFFF;" version="1.1" viewBox="0 0 924 362" width="924px" zoomAndPan="magnify"><defs/><g><rect height="11.7773" style="stroke:#00000000;stroke-width:1.0;fill:none;" width="76" x="834" y="0"/><text fill="#888888" font-family="sans-serif" font-size="10" lengthAdjust="spacing" textLength="76" x="834" y="9.668">Lambdas Server</text><!--MD5=[581e4759af2a3ba074aee7eb5f524cfe]
entity lambdasserver--><g id="elem_lambdasserver"><rect fill="#F1F1F1" height="39.4883" rx="2.5" ry="2.5" style="stroke:#181818;stroke-width:0.5;" width="138" x="365" y="19.7773"/><polygon fill="#F1F1F1" points="486,24.7773,486,38.7773,498,38.7773,498,30.7773,492,24.7773,486,24.7773" style="stroke:#181818;stroke-width:0.5;"/><line style="stroke:#181818;stroke-width:0.5;" x1="492" x2="492" y1="24.7773" y2="30.7773"/><line style="stroke:#181818;stroke-width:0.5;" x1="498" x2="492" y1="30.7773" y2="30.7773"/><text fill="#000000" font-family="sans-serif" font-size="14" lengthAdjust="spacing" textLength="108" x="375" y="46.3125">lambdas-server</text></g><!--MD5=[549b2c0bab588137aeb052f9dbbc6263]
entity catalystapispecs--><g id="elem_catalystapispecs"><rect fill="#F1F1F1" height="39.4883" rx="2.5" ry="2.5" style="stroke:#181818;stroke-width:0.5;" width="156" x="7" y="118.7773"/><polygon fill="#F1F1F1" points="146,123.7773,146,137.7773,158,137.7773,158,129.7773,152,123.7773,146,123.7773" style="stroke:#181818;stroke-width:0.5;"/><line style="stroke:#181818;stroke-width:0.5;" x1="152" x2="152" y1="123.7773" y2="129.7773"/><line style="stroke:#181818;stroke-width:0.5;" x1="158" x2="152" y1="129.7773" y2="129.7773"/><text fill="#000000" font-family="sans-serif" font-size="14" lengthAdjust="spacing" textLength="126" x="17" y="145.3125">catalyst-api-specs</text></g><!--MD5=[126f4549bd88685c817470eb62ade7f4]
entity catalystcontracts--><g id="elem_catalystcontracts"><rect fill="#F1F1F1" height="39.4883" rx="2.5" ry="2.5" style="stroke:#181818;stroke-width:0.5;" width="191" x="386.5" y="217.7773"/><polygon fill="#F1F1F1" points="560.5,222.7773,560.5,236.7773,572.5,236.7773,572.5,228.7773,566.5,222.7773,560.5,222.7773" style="stroke:#181818;stroke-width:0.5;"/><line style="stroke:#181818;stroke-width:0.5;" x1="566.5" x2="566.5" y1="222.7773" y2="228.7773"/><line style="stroke:#181818;stroke-width:0.5;" x1="572.5" x2="566.5" y1="228.7773" y2="228.7773"/><text fill="#000000" font-family="sans-serif" font-size="14" lengthAdjust="spacing" textLength="161" x="396.5" y="244.3125">@dcl/catalyst-contracts</text></g><!--MD5=[6cc4354bc172bfab4bc5d504e938f9dd]
entity crypto--><g id="elem_crypto"><rect fill="#F1F1F1" height="39.4883" rx="2.5" ry="2.5" style="stroke:#181818;stroke-width:0.5;" width="112" x="269" y="118.7773"/><polygon fill="#F1F1F1" points="364,123.7773,364,137.7773,376,137.7773,376,129.7773,370,123.7773,364,123.7773" style="stroke:#181818;stroke-width:0.5;"/><line style="stroke:#181818;stroke-width:0.5;" x1="370" x2="370" y1="123.7773" y2="129.7773"/><line style="stroke:#181818;stroke-width:0.5;" x1="376" x2="370" y1="129.7773" y2="129.7773"/><text fill="#000000" font-family="sans-serif" font-size="14" lengthAdjust="spacing" textLength="82" x="279" y="145.3125">@dcl/crypto</text></g><!--MD5=[f50278905982483810086d91fb8fa489]
entity schemas--><g id="elem_schemas"><rect fill="#F1F1F1" height="39.4883" rx="2.5" ry="2.5" style="stroke:#181818;stroke-width:0.5;" width="128" x="152" y="217.7773"/><polygon fill="#F1F1F1" points="263,222.7773,263,236.7773,275,236.7773,275,228.7773,269,222.7773,263,222.7773" style="stroke:#181818;stroke-width:0.5;"/><line style="stroke:#181818;stroke-width:0.5;" x1="269" x2="269" y1="222.7773" y2="228.7773"/><line style="stroke:#181818;stroke-width:0.5;" x1="275" x2="269" y1="228.7773" y2="228.7773"/><text fill="#000000" font-family="sans-serif" font-size="14" lengthAdjust="spacing" textLength="98" x="162" y="244.3125">@dcl/schemas</text></g><!--MD5=[51ce5b29dd3532928cb20d83f06e30eb]
entity urnresolver--><g id="elem_urnresolver"><rect fill="#F1F1F1" height="39.4883" rx="2.5" ry="2.5" style="stroke:#181818;stroke-width:0.5;" width="156" x="487" y="118.7773"/><polygon fill="#F1F1F1" points="626,123.7773,626,137.7773,638,137.7773,638,129.7773,632,123.7773,626,123.7773" style="stroke:#181818;stroke-width:0.5;"/><line style="stroke:#181818;stroke-width:0.5;" x1="632" x2="632" y1="123.7773" y2="129.7773"/><line style="stroke:#181818;stroke-width:0.5;" x1="638" x2="632" y1="129.7773" y2="129.7773"/><text fill="#000000" font-family="sans-serif" font-size="14" lengthAdjust="spacing" textLength="126" x="497" y="145.3125">@dcl/urn-resolver</text></g><!--MD5=[4059f9144958a730a0ff360cc593e040]
entity ethconnect--><g id="elem_ethconnect"><rect fill="#F1F1F1" height="39.4883" rx="2.5" ry="2.5" style="stroke:#181818;stroke-width:0.5;" width="114" x="350" y="316.7773"/><polygon fill="#F1F1F1" points="447,321.7773,447,335.7773,459,335.7773,459,327.7773,453,321.7773,447,321.7773" style="stroke:#181818;stroke-width:0.5;"/><line style="stroke:#181818;stroke-width:0.5;" x1="453" x2="453" y1="321.7773" y2="327.7773"/><line style="stroke:#181818;stroke-width:0.5;" x1="459" x2="453" y1="327.7773" y2="327.7773"/><text fill="#000000" font-family="sans-serif" font-size="14" lengthAdjust="spacing" textLength="84" x="360" y="343.3125">eth-connect</text></g><!--MD5=[b3ec3b69ca62dc1e36823e15242eebd5]
entity catalystclient--><g id="elem_catalystclient"><rect fill="#F1F1F1" height="39.4883" rx="2.5" ry="2.5" style="stroke:#181818;stroke-width:0.5;" width="154" x="678" y="118.7773"/><polygon fill="#F1F1F1" points="815,123.7773,815,137.7773,827,137.7773,827,129.7773,821,123.7773,815,123.7773" style="stroke:#181818;stroke-width:0.5;"/><line style="stroke:#181818;stroke-width:0.5;" x1="821" x2="821" y1="123.7773" y2="129.7773"/><line style="stroke:#181818;stroke-width:0.5;" x1="827" x2="821" y1="129.7773" y2="129.7773"/><text fill="#000000" font-family="sans-serif" font-size="14" lengthAdjust="spacing" textLength="124" x="688" y="145.3125">dcl-catalyst-client</text></g><!--MD5=[ddfbcfa8a42cff53c7e8cea880dde2de]
entity catalystcommons--><g id="elem_catalystcommons"><rect fill="#F1F1F1" height="39.4883" rx="2.5" ry="2.5" style="stroke:#181818;stroke-width:0.5;" width="184" x="728" y="217.7773"/><polygon fill="#F1F1F1" points="895,222.7773,895,236.7773,907,236.7773,907,228.7773,901,222.7773,895,222.7773" style="stroke:#181818;stroke-width:0.5;"/><line style="stroke:#181818;stroke-width:0.5;" x1="901" x2="901" y1="222.7773" y2="228.7773"/><line style="stroke:#181818;stroke-width:0.5;" x1="907" x2="901" y1="228.7773" y2="228.7773"/><text fill="#000000" font-family="sans-serif" font-size="14" lengthAdjust="spacing" textLength="154" x="738" y="244.3125">dcl-catalyst-commons</text></g><!--MD5=[b797a87e23a2920057b8b1492fce927f]
link lambdasserver to catalystapispecs--><g id="link_lambdasserver_catalystapispecs"><path d="M367.12,58.8673 C306.87,75.6173 218.52,100.1673 156.79,117.3273 " fill="none" id="lambdasserver-to-catalystapispecs" style="stroke:#181818;stroke-width:1.0;"/><polygon fill="#181818" points="151.65,118.7573,161.3938,120.1922,156.4662,117.414,159.2444,112.4863,151.65,118.7573" style="stroke:#181818;stroke-width:1.0;"/></g><!--MD5=[1e2450b5d6e9a75941cf9acdba9ad09d]
link lambdasserver to catalystcontracts--><g id="link_lambdasserver_catalystcontracts"><path d="M438.6,59.0673 C447.38,94.9273 466.51,173.0273 476.17,212.4673 " fill="none" id="lambdasserver-to-catalystcontracts" style="stroke:#181818;stroke-width:1.0;"/><polygon fill="#181818" points="477.41,217.5373,479.1615,207.8455,476.2242,212.68,471.3897,209.7427,477.41,217.5373" style="stroke:#181818;stroke-width:1.0;"/></g><!--MD5=[5d4b3856d5d7270518031973e194b329]
link lambdasserver to crypto--><g id="link_lambdasserver_crypto"><path d="M412.98,58.9773 C395.04,74.9473 369.19,97.9573 350.15,114.8973 " fill="none" id="lambdasserver-to-crypto" style="stroke:#181818;stroke-width:1.0;"/><polygon fill="#181818" points="345.95,118.6273,355.3334,115.6355,349.6863,115.3046,350.0171,109.6575,345.95,118.6273" style="stroke:#181818;stroke-width:1.0;"/></g><!--MD5=[cfabb8b6bac975eff0b49a6267c1cf8a]
link lambdasserver to schemas--><g id="link_lambdasserver_schemas"><path d="M364.57,54.7373 C326.18,66.1073 280.43,85.7273 251,118.7773 C227.61,145.0473 219.83,186.3573 217.26,212.3473 " fill="none" id="lambdasserver-to-schemas" style="stroke:#181818;stroke-width:1.0;"/><polygon fill="#181818" points="216.78,217.6573,221.5628,209.0478,217.2236,212.6771,213.5943,208.3379,216.78,217.6573" style="stroke:#181818;stroke-width:1.0;"/></g><!--MD5=[6c54aaad50bd07624799906320462e17]
link lambdasserver to urnresolver--><g id="link_lambdasserver_urnresolver"><path d="M459.26,58.9773 C481.1,75.1473 512.68,98.5373 535.64,115.5373 " fill="none" id="lambdasserver-to-urnresolver" style="stroke:#181818;stroke-width:1.0;"/><polygon fill="#181818" points="539.82,118.6273,534.9514,110.066,535.7962,115.6594,530.2027,116.5041,539.82,118.6273" style="stroke:#181818;stroke-width:1.0;"/></g><!--MD5=[98c7cfe851fe692d1732f4cec3ac6bd6]
link lambdasserver to catalystclient--><g id="link_lambdasserver_catalystclient"><path d="M495.51,58.8673 C550.82,75.5773 631.87,100.0673 688.62,117.2173 " fill="none" id="lambdasserver-to-catalystclient" style="stroke:#181818;stroke-width:1.0;"/><polygon fill="#181818" points="693.7,118.7573,686.2553,112.3093,688.9168,117.301,683.9251,119.9624,693.7,118.7573" style="stroke:#181818;stroke-width:1.0;"/></g><!--MD5=[b3987f374f428d277575a34bbde31a0c]
link lambdasserver to catalystcommons--><g id="link_lambdasserver_catalystcommons"><path d="M503.1,43.0073 C609.75,48.8473 806.73,66.5773 850,118.7773 C872.35,145.7473 852.98,187.2873 836.68,213.0673 " fill="none" id="lambdasserver-to-catalystcommons" style="stroke:#181818;stroke-width:1.0;"/><polygon fill="#181818" points="833.89,217.3873,842.1345,211.9996,836.6039,213.188,835.4155,207.6573,833.89,217.3873" style="stroke:#181818;stroke-width:1.0;"/></g><!--MD5=[f9563b62f526630219fad096cfbc74c7]
link catalystclient to catalystcommons--><g id="link_catalystclient_catalystcommons"><path d="M767.53,157.9773 C778.14,173.8173 793.39,196.5673 804.72,213.4673 " fill="none" id="catalystclient-to-catalystcommons" style="stroke:#181818;stroke-width:1.0;"/><polygon fill="#181818" points="807.51,217.6273,805.8228,207.9241,804.7266,213.4737,799.177,212.3775,807.51,217.6273" style="stroke:#181818;stroke-width:1.0;"/></g><!--MD5=[6d3fc954244d9c93ccaab8d95c03cf3e]
link catalystclient to catalystcontracts--><g id="link_catalystclient_catalystcontracts"><path d="M702.69,157.8673 C655.83,174.5073 587.28,198.8673 539.03,216.0173 " fill="none" id="catalystclient-to-catalystcontracts" style="stroke:#181818;stroke-width:1.0;"/><polygon fill="#181818" points="534.14,217.7573,543.9593,218.5199,538.8526,216.0865,541.286,210.9798,534.14,217.7573" style="stroke:#181818;stroke-width:1.0;"/></g><!--MD5=[d2957ecac3ef3de9c0229a8ade92ad2e]
link catalystcontracts to ethconnect--><g id="link_catalystcontracts_ethconnect"><path d="M467.54,256.9773 C455.3,272.8173 437.7,295.5673 424.64,312.4673 " fill="none" id="catalystcontracts-to-ethconnect" style="stroke:#181818;stroke-width:1.0;"/><polygon fill="#181818" points="421.42,316.6273,430.0877,311.9507,424.4768,312.6706,423.7569,307.0597,421.42,316.6273" style="stroke:#181818;stroke-width:1.0;"/></g><!--MD5=[c45f192cafb334e2ccb06f34add13204]
link crypto to schemas--><g id="link_crypto_schemas"><path d="M303.98,157.9773 C286.04,173.9473 260.19,196.9573 241.15,213.8973 " fill="none" id="crypto-to-schemas" style="stroke:#181818;stroke-width:1.0;"/><polygon fill="#181818" points="236.95,217.6273,246.3334,214.6355,240.6863,214.3046,241.0171,208.6575,236.95,217.6273" style="stroke:#181818;stroke-width:1.0;"/></g><!--MD5=[d91e2e6d0ca713fa69b3dc7b86c4c820]
link crypto to ethconnect--><g id="link_crypto_ethconnect"><path d="M331.34,157.8073 C339.46,181.1373 354.25,222.3373 369,256.7773 C377.05,275.5673 387.18,296.3773 394.95,311.8473 " fill="none" id="crypto-to-ethconnect" style="stroke:#181818;stroke-width:1.0;"/><polygon fill="#181818" points="397.29,316.4673,396.8051,306.6304,395.0368,312.0038,389.6635,310.2355,397.29,316.4673" style="stroke:#181818;stroke-width:1.0;"/></g><!--MD5=[fae4f58708f2ae2dc8ce2cfb5892c384]
@startuml
header "Content Server"
artifact "content-server" as contentserver
artifact "catalyst-api-specs" as catalystapispecs
artifact "@dcl/catalyst-contracts" as catalystcontracts
artifact "@dcl/content-validator" as contentvalidator
artifact "@dcl/crypto" as crypto
artifact "@dcl/hashing" as hashing
artifact "@dcl/schemas" as schemas
artifact "@dcl/snapshots-fetcher" as snapshotsfetcher
artifact "@dcl/urn-resolver" as urnresolver
artifact "eth-connect" as ethconnect
artifact "@dcl/content-hash-tree" as contenthashtree
artifact "@dcl/catalyst-storage" as catalyststorage
artifact "dcl-catalyst-client" as catalystclient
artifact "dcl-catalyst-commons" as catalystcommons

contentserver - -> catalystapispecs
contentserver - -> catalystcontracts
contentserver - -> contentvalidator
contentserver - -> crypto
contentserver - -> hashing
contentserver - -> schemas
contentserver - -> snapshotsfetcher
contentserver - -> urnresolver
contentserver - -> catalystclient
catalystclient - -> catalystcommons
catalystcontracts - -> ethconnect
contentvalidator - -> contenthashtree
contentvalidator - -> hashing
contentvalidator - -> schemas
contentvalidator - -> urnresolver
crypto - -> schemas
crypto - -> ethconnect
snapshotsfetcher - -> catalyststorage
snapshotsfetcher - -> hashing
snapshotsfetcher - -> schemas
catalystclient - -> catalystcontracts

newpage
header "Lambdas Server"
artifact "lambdas-server" as lambdasserver
artifact "catalyst-api-specs" as catalystapispecs
artifact "@dcl/catalyst-contracts" as catalystcontracts
artifact "@dcl/crypto" as crypto
artifact "@dcl/schemas" as schemas
artifact "@dcl/urn-resolver" as urnresolver
artifact "eth-connect" as ethconnect
artifact "dcl-catalyst-client" as catalystclient
artifact "dcl-catalyst-commons" as catalystcommons

lambdasserver - -> catalystapispecs
lambdasserver - -> catalystcontracts
lambdasserver - -> crypto
lambdasserver - -> schemas
lambdasserver - -> urnresolver
lambdasserver - -> catalystclient
lambdasserver - -> catalystcommons
catalystclient - -> catalystcommons
catalystclient - -> catalystcontracts
catalystcontracts - -> ethconnect
crypto - -> schemas
crypto - -> ethconnect

@enduml

PlantUML version 1.2022.6(Tue Jun 21 14:34:49 ART 2022)
(GPL source distribution)
Java Runtime: OpenJDK Runtime Environment
JVM: OpenJDK 64-Bit Server VM
Default Encoding: UTF-8
Language: en
Country: AR
--></g></svg>