<?xml version="1.0" encoding="UTF-8" standalone="no"?><svg xmlns="http://www.w3.org/2000/svg" xmlns:xlink="http://www.w3.org/1999/xlink" contentStyleType="text/css" height="262px" preserveAspectRatio="none" style="width:1636px;height:262px;background:#FFFFFF;" version="1.1" viewBox="0 0 1636 262" width="1636px" zoomAndPan="magnify"><defs/><g><rect height="11.6406" style="stroke:#00000000;stroke-width:1.0;fill:none;" width="82" x="1540" y="0"/><text fill="#888888" font-family="sans-serif" font-size="10" lengthAdjust="spacing" textLength="82" x="1540" y="9.2822">Content Server</text><!--MD5=[8057ce764d90030538cfb75b46618f6d]
entity contentserver--><g id="elem_contentserver"><rect fill="#F1F1F1" height="39.2969" rx="2.5" ry="2.5" style="stroke:#181818;stroke-width:0.5;" width="139" x="697.5" y="19.6406"/><polygon fill="#F1F1F1" points="819.5,24.6406,819.5,38.6406,831.5,38.6406,831.5,30.6406,825.5,24.6406,819.5,24.6406" style="stroke:#181818;stroke-width:0.5;"/><line style="stroke:#181818;stroke-width:0.5;" x1="825.5" x2="825.5" y1="24.6406" y2="30.6406"/><line style="stroke:#181818;stroke-width:0.5;" x1="831.5" x2="825.5" y1="30.6406" y2="30.6406"/><text fill="#000000" font-family="sans-serif" font-size="14" lengthAdjust="spacing" textLength="109" x="707.5" y="45.6357">content-server</text></g><!--MD5=[549b2c0bab588137aeb052f9dbbc6263]
entity catalystapispecs--><g id="elem_catalystapispecs"><rect fill="#F1F1F1" height="39.2969" rx="2.5" ry="2.5" style="stroke:#181818;stroke-width:0.5;" width="162" x="7" y="118.6406"/><polygon fill="#F1F1F1" points="152,123.6406,152,137.6406,164,137.6406,164,129.6406,158,123.6406,152,123.6406" style="stroke:#181818;stroke-width:0.5;"/><line style="stroke:#181818;stroke-width:0.5;" x1="158" x2="158" y1="123.6406" y2="129.6406"/><line style="stroke:#181818;stroke-width:0.5;" x1="164" x2="158" y1="129.6406" y2="129.6406"/><text fill="#000000" font-family="sans-serif" font-size="14" lengthAdjust="spacing" textLength="132" x="17" y="144.6357">catalyst-api-specs</text></g><!--MD5=[126f4549bd88685c817470eb62ade7f4]
entity catalystcontracts--><g id="elem_catalystcontracts"><rect fill="#F1F1F1" height="39.2969" rx="2.5" ry="2.5" style="stroke:#181818;stroke-width:0.5;" width="202" x="204" y="118.6406"/><polygon fill="#F1F1F1" points="389,123.6406,389,137.6406,401,137.6406,401,129.6406,395,123.6406,389,123.6406" style="stroke:#181818;stroke-width:0.5;"/><line style="stroke:#181818;stroke-width:0.5;" x1="395" x2="395" y1="123.6406" y2="129.6406"/><line style="stroke:#181818;stroke-width:0.5;" x1="401" x2="395" y1="129.6406" y2="129.6406"/><text fill="#000000" font-family="sans-serif" font-size="14" lengthAdjust="spacing" textLength="172" x="214" y="144.6357">@dcl/catalyst-contracts</text></g><!--MD5=[a70e63df2b0daf121c6de1d3f5144ff5]
entity contentvalidator--><g id="elem_contentvalidator"><rect fill="#F1F1F1" height="39.2969" rx="2.5" ry="2.5" style="stroke:#181818;stroke-width:0.5;" width="197" x="975.5" y="118.6406"/><polygon fill="#F1F1F1" points="1155.5,123.6406,1155.5,137.6406,1167.5,137.6406,1167.5,129.6406,1161.5,123.6406,1155.5,123.6406" style="stroke:#181818;stroke-width:0.5;"/><line style="stroke:#181818;stroke-width:0.5;" x1="1161.5" x2="1161.5" y1="123.6406" y2="129.6406"/><line style="stroke:#181818;stroke-width:0.5;" x1="1167.5" x2="1161.5" y1="129.6406" y2="129.6406"/><text fill="#000000" font-family="sans-serif" font-size="14" lengthAdjust="spacing" textLength="167" x="985.5" y="144.6357">@dcl/content-validator</text></g><!--MD5=[6cc4354bc172bfab4bc5d504e938f9dd]
entity crypto--><g id="elem_crypto"><rect fill="#F1F1F1" height="39.2969" rx="2.5" ry="2.5" style="stroke:#181818;stroke-width:0.5;" width="118" x="441" y="118.6406"/><polygon fill="#F1F1F1" points="542,123.6406,542,137.6406,554,137.6406,554,129.6406,548,123.6406,542,123.6406" style="stroke:#181818;stroke-width:0.5;"/><line style="stroke:#181818;stroke-width:0.5;" x1="548" x2="548" y1="123.6406" y2="129.6406"/><line style="stroke:#181818;stroke-width:0.5;" x1="554" x2="548" y1="129.6406" y2="129.6406"/><text fill="#000000" font-family="sans-serif" font-size="14" lengthAdjust="spacing" textLength="88" x="451" y="144.6357">@dcl/crypto</text></g><!--MD5=[50c3cd0b79a81c36198e823695041bb3]
entity hashing--><g id="elem_hashing"><rect fill="#F1F1F1" height="39.2969" rx="2.5" ry="2.5" style="stroke:#181818;stroke-width:0.5;" width="125" x="841.5" y="217.6406"/><polygon fill="#F1F1F1" points="949.5,222.6406,949.5,236.6406,961.5,236.6406,961.5,228.6406,955.5,222.6406,949.5,222.6406" style="stroke:#181818;stroke-width:0.5;"/><line style="stroke:#181818;stroke-width:0.5;" x1="955.5" x2="955.5" y1="222.6406" y2="228.6406"/><line style="stroke:#181818;stroke-width:0.5;" x1="961.5" x2="955.5" y1="228.6406" y2="228.6406"/><text fill="#000000" font-family="sans-serif" font-size="14" lengthAdjust="spacing" textLength="95" x="851.5" y="243.6357">@dcl/hashing</text></g><!--MD5=[f50278905982483810086d91fb8fa489]
entity schemas--><g id="elem_schemas"><rect fill="#F1F1F1" height="39.2969" rx="2.5" ry="2.5" style="stroke:#181818;stroke-width:0.5;" width="132" x="451" y="217.6406"/><polygon fill="#F1F1F1" points="566,222.6406,566,236.6406,578,236.6406,578,228.6406,572,222.6406,566,222.6406" style="stroke:#181818;stroke-width:0.5;"/><line style="stroke:#181818;stroke-width:0.5;" x1="572" x2="572" y1="222.6406" y2="228.6406"/><line style="stroke:#181818;stroke-width:0.5;" x1="578" x2="572" y1="228.6406" y2="228.6406"/><text fill="#000000" font-family="sans-serif" font-size="14" lengthAdjust="spacing" textLength="102" x="461" y="243.6357">@dcl/schemas</text></g><!--MD5=[a6918ae6e4f08324b235002e20f5f2a0]
entity snapshotsfetcher--><g id="elem_snapshotsfetcher"><rect fill="#F1F1F1" height="39.2969" rx="2.5" ry="2.5" style="stroke:#181818;stroke-width:0.5;" width="203" x="665.5" y="118.6406"/><polygon fill="#F1F1F1" points="851.5,123.6406,851.5,137.6406,863.5,137.6406,863.5,129.6406,857.5,123.6406,851.5,123.6406" style="stroke:#181818;stroke-width:0.5;"/><line style="stroke:#181818;stroke-width:0.5;" x1="857.5" x2="857.5" y1="123.6406" y2="129.6406"/><line style="stroke:#181818;stroke-width:0.5;" x1="863.5" x2="857.5" y1="129.6406" y2="129.6406"/><text fill="#000000" font-family="sans-serif" font-size="14" lengthAdjust="spacing" textLength="173" x="675.5" y="144.6357">@dcl/snapshots-fetcher</text></g><!--MD5=[51ce5b29dd3532928cb20d83f06e30eb]
entity urnresolver--><g id="elem_urnresolver"><rect fill="#F1F1F1" height="39.2969" rx="2.5" ry="2.5" style="stroke:#181818;stroke-width:0.5;" width="157" x="1241.5" y="217.6406"/><polygon fill="#F1F1F1" points="1381.5,222.6406,1381.5,236.6406,1393.5,236.6406,1393.5,228.6406,1387.5,222.6406,1381.5,222.6406" style="stroke:#181818;stroke-width:0.5;"/><line style="stroke:#181818;stroke-width:0.5;" x1="1387.5" x2="1387.5" y1="222.6406" y2="228.6406"/><line style="stroke:#181818;stroke-width:0.5;" x1="1393.5" x2="1387.5" y1="228.6406" y2="228.6406"/><text fill="#000000" font-family="sans-serif" font-size="14" lengthAdjust="spacing" textLength="127" x="1251.5" y="243.6357">@dcl/urn-resolver</text></g><!--MD5=[4059f9144958a730a0ff360cc593e040]
entity ethconnect--><g id="elem_ethconnect"><rect fill="#F1F1F1" height="39.2969" rx="2.5" ry="2.5" style="stroke:#181818;stroke-width:0.5;" width="120" x="262" y="217.6406"/><polygon fill="#F1F1F1" points="365,222.6406,365,236.6406,377,236.6406,377,228.6406,371,222.6406,365,222.6406" style="stroke:#181818;stroke-width:0.5;"/><line style="stroke:#181818;stroke-width:0.5;" x1="371" x2="371" y1="222.6406" y2="228.6406"/><line style="stroke:#181818;stroke-width:0.5;" x1="377" x2="371" y1="228.6406" y2="228.6406"/><text fill="#000000" font-family="sans-serif" font-size="14" lengthAdjust="spacing" textLength="90" x="272" y="243.6357">eth-connect</text></g><!--MD5=[653231390bd993b1a6fb767479edfb21]
entity contenthashtree--><g id="elem_contenthashtree"><rect fill="#F1F1F1" height="39.2969" rx="2.5" ry="2.5" style="stroke:#181818;stroke-width:0.5;" width="204" x="1002" y="217.6406"/><polygon fill="#F1F1F1" points="1189,222.6406,1189,236.6406,1201,236.6406,1201,228.6406,1195,222.6406,1189,222.6406" style="stroke:#181818;stroke-width:0.5;"/><line style="stroke:#181818;stroke-width:0.5;" x1="1195" x2="1195" y1="222.6406" y2="228.6406"/><line style="stroke:#181818;stroke-width:0.5;" x1="1201" x2="1195" y1="228.6406" y2="228.6406"/><text fill="#000000" font-family="sans-serif" font-size="14" lengthAdjust="spacing" textLength="174" x="1012" y="243.6357">@dcl/content-hash-tree</text></g><!--MD5=[412156e8099e6575685a30315695ebe5]
entity catalyststorage--><g id="elem_catalyststorage"><rect fill="#F1F1F1" height="39.2969" rx="2.5" ry="2.5" style="stroke:#181818;stroke-width:0.5;" width="188" x="618" y="217.6406"/><polygon fill="#F1F1F1" points="789,222.6406,789,236.6406,801,236.6406,801,228.6406,795,222.6406,789,222.6406" style="stroke:#181818;stroke-width:0.5;"/><line style="stroke:#181818;stroke-width:0.5;" x1="795" x2="795" y1="222.6406" y2="228.6406"/><line style="stroke:#181818;stroke-width:0.5;" x1="801" x2="795" y1="228.6406" y2="228.6406"/><text fill="#000000" font-family="sans-serif" font-size="14" lengthAdjust="spacing" textLength="158" x="628" y="243.6357">@dcl/catalyst-storage</text></g><!--MD5=[b3ec3b69ca62dc1e36823e15242eebd5]
entity catalystclient--><g id="elem_catalystclient"><rect fill="#F1F1F1" height="39.2969" rx="2.5" ry="2.5" style="stroke:#181818;stroke-width:0.5;" width="161" x="1363.5" y="118.6406"/><polygon fill="#F1F1F1" points="1507.5,123.6406,1507.5,137.6406,1519.5,137.6406,1519.5,129.6406,1513.5,123.6406,1507.5,123.6406" style="stroke:#181818;stroke-width:0.5;"/><line style="stroke:#181818;stroke-width:0.5;" x1="1513.5" x2="1513.5" y1="123.6406" y2="129.6406"/><line style="stroke:#181818;stroke-width:0.5;" x1="1519.5" x2="1513.5" y1="129.6406" y2="129.6406"/><text fill="#000000" font-family="sans-serif" font-size="14" lengthAdjust="spacing" textLength="131" x="1373.5" y="144.6357">dcl-catalyst-client</text></g><!--MD5=[ddfbcfa8a42cff53c7e8cea880dde2de]
entity catalystcommons--><g id="elem_catalystcommons"><rect fill="#F1F1F1" height="39.2969" rx="2.5" ry="2.5" style="stroke:#181818;stroke-width:0.5;" width="190" x="1434" y="217.6406"/><polygon fill="#F1F1F1" points="1607,222.6406,1607,236.6406,1619,236.6406,1619,228.6406,1613,222.6406,1607,222.6406" style="stroke:#181818;stroke-width:0.5;"/><line style="stroke:#181818;stroke-width:0.5;" x1="1613" x2="1613" y1="222.6406" y2="228.6406"/><line style="stroke:#181818;stroke-width:0.5;" x1="1619" x2="1613" y1="228.6406" y2="228.6406"/><text fill="#000000" font-family="sans-serif" font-size="14" lengthAdjust="spacing" textLength="160" x="1444" y="243.6357">dcl-catalyst-commons</text></g><!--MD5=[87b3d513ec33a445c63e0ea6b49a1f65]
link contentserver to catalystapispecs--><g id="link_contentserver_catalystapispecs"><path d="M697.068,48.3906 C587.757,61.5566 369.874,88.8846 186,118.6406 C182.154,119.2626 178.228,119.9186 174.264,120.5976 " fill="none" id="contentserver-to-catalystapispecs" style="stroke:#181818;stroke-width:1.0;"/><polygon fill="#181818" points="169.226,121.4686,178.7764,123.875,174.1527,120.6158,177.4119,115.9922,169.226,121.4686" style="stroke:#181818;stroke-width:1.0;"/></g><!--MD5=[2b6b1eff89d09ebd21548f5fb234c80b]
link contentserver to catalystcontracts--><g id="link_contentserver_catalystcontracts"><path d="M697.334,54.7676 C617.671,71.4936 486.878,98.9546 398.423,117.5256 " fill="none" id="contentserver-to-catalystcontracts" style="stroke:#181818;stroke-width:1.0;"/><polygon fill="#181818" points="393.453,118.5696,403.0834,120.6326,398.3461,117.541,401.4376,112.8037,393.453,118.5696" style="stroke:#181818;stroke-width:1.0;"/></g><!--MD5=[42dc5e0eeb051217eac2591e77e5b187]
link contentserver to contentvalidator--><g id="link_contentserver_contentvalidator"><path d="M825.829,58.7286 C878.728,75.4426 956.237,99.9316 1010.52,117.0836 " fill="none" id="contentserver-to-contentvalidator" style="stroke:#181818;stroke-width:1.0;"/><polygon fill="#181818" points="1015.37,118.6156,1008.0033,112.0786,1010.6046,117.1019,1005.5814,119.7032,1015.37,118.6156" style="stroke:#181818;stroke-width:1.0;"/></g><!--MD5=[5b00effab8240d07ff49847018b51f45]
link contentserver to crypto--><g id="link_contentserver_crypto"><path d="M715.836,58.7286 C670.014,75.3756 602.962,99.7346 555.78,116.8756 " fill="none" id="contentserver-to-crypto" style="stroke:#181818;stroke-width:1.0;"/><polygon fill="#181818" points="550.991,118.6156,560.8159,119.3027,555.6906,116.9086,558.0847,111.7834,550.991,118.6156" style="stroke:#181818;stroke-width:1.0;"/></g><!--MD5=[c90453930419e49875daf3f3f4903f04]
link contentserver to hashing--><g id="link_contentserver_hashing"><path d="M812.491,58.7826 C838.226,71.7296 868.642,91.5496 886,118.6406 C904.19,147.0296 906.494,187.0407 905.78,212.2764 " fill="none" id="contentserver-to-hashing" style="stroke:#181818;stroke-width:1.0;"/><polygon fill="#181818" points="905.586,217.4277,909.9213,208.5843,905.7738,212.4313,901.9269,208.2838,905.586,217.4277" style="stroke:#181818;stroke-width:1.0;"/></g><!--MD5=[f2a62e081199c96f5749878c00710bf1]
link contentserver to schemas--><g id="link_contentserver_schemas"><path d="M736.066,58.7836 C711.53,73.9856 676.708,96.4916 648,118.6406 C608.115,149.4126 565.262,189.2912 539.812,213.7787 " fill="none" id="contentserver-to-schemas" style="stroke:#181818;stroke-width:1.0;"/><polygon fill="#181818" points="536.186,217.277,545.4405,213.9073,539.7845,213.8056,539.8862,208.1497,536.186,217.277" style="stroke:#181818;stroke-width:1.0;"/></g><!--MD5=[b4c3e6de4e0cab691978049720343548]
link contentserver to snapshotsfetcher--><g id="link_contentserver_snapshotsfetcher"><path d="M767,58.8436 C767,74.4096 767,96.6616 767,113.4676 " fill="none" id="contentserver-to-snapshotsfetcher" style="stroke:#181818;stroke-width:1.0;"/><polygon fill="#181818" points="767,118.4956,771,109.4956,767,113.4956,763,109.4956,767,118.4956" style="stroke:#181818;stroke-width:1.0;"/></g><!--MD5=[e11dad0a24f5546e763f9dea04c90160]
link contentserver to urnresolver--><g id="link_contentserver_urnresolver"><path d="M836.544,41.5566 C923.477,45.8356 1074.84,61.6976 1190,118.6406 C1236.79,141.7746 1279.25,186.6734 1302.17,213.7748 " fill="none" id="contentserver-to-urnresolver" style="stroke:#181818;stroke-width:1.0;"/><polygon fill="#181818" points="1305.41,217.6395,1302.6909,208.1734,1302.1968,213.8087,1296.5616,213.3146,1305.41,217.6395" style="stroke:#181818;stroke-width:1.0;"/></g><!--MD5=[dd7232f6a44bde856a2fa2a059eb9a79]
link contentserver to catalystclient--><g id="link_contentserver_catalystclient"><path d="M836.585,50.1106 C961.344,67.9856 1222.69,105.4306 1358.28,124.8586 " fill="none" id="contentserver-to-catalystclient" style="stroke:#181818;stroke-width:1.0;"/><polygon fill="#181818" points="1363.45,125.5986,1355.1138,120.3539,1358.5013,124.8843,1353.9709,128.2718,1363.45,125.5986" style="stroke:#181818;stroke-width:1.0;"/></g><!--MD5=[f9563b62f526630219fad096cfbc74c7]
link catalystclient to catalystcommons--><g id="link_catalystclient_catalystcommons"><path d="M1460.39,157.8432 C1474.26,173.6778 1494.2,196.431 1509.01,213.3323 " fill="none" id="catalystclient-to-catalystcommons" style="stroke:#181818;stroke-width:1.0;"/><polygon fill="#181818" points="1512.66,217.4954,1509.7327,208.0916,1509.3631,213.7364,1503.7183,213.3667,1512.66,217.4954" style="stroke:#181818;stroke-width:1.0;"/></g><!--MD5=[d2957ecac3ef3de9c0229a8ade92ad2e]
link catalystcontracts to ethconnect--><g id="link_catalystcontracts_ethconnect"><path d="M308.278,157.8432 C311.006,173.4094 314.906,195.6616 317.851,212.468 " fill="none" id="catalystcontracts-to-ethconnect" style="stroke:#181818;stroke-width:1.0;"/><polygon fill="#181818" points="318.732,217.4954,321.1185,207.9401,317.869,212.5705,313.2386,209.3209,318.732,217.4954" style="stroke:#181818;stroke-width:1.0;"/></g><!--MD5=[e1dc57b980e59fc1d952ea16d6bf42da]
link contentvalidator to contenthashtree--><g id="link_contentvalidator_contenthashtree"><path d="M1079.78,157.8432 C1084.6,173.4094 1091.48,195.6616 1096.68,212.468 " fill="none" id="contentvalidator-to-contenthashtree" style="stroke:#181818;stroke-width:1.0;"/><polygon fill="#181818" points="1098.23,217.4954,1099.3972,207.716,1096.7551,212.7179,1091.7532,210.0758,1098.23,217.4954" style="stroke:#181818;stroke-width:1.0;"/></g><!--MD5=[d63034edfbfee8611316721f38a854d3]
link contentvalidator to hashing--><g id="link_contentvalidator_hashing"><path d="M1041.22,157.8432 C1012.65,174.1474 971.218,197.7868 941.365,214.8205 " fill="none" id="contentvalidator-to-hashing" style="stroke:#181818;stroke-width:1.0;"/><polygon fill="#181818" points="936.677,217.4954,946.4765,216.5106,941.0201,215.0181,942.5127,209.5617,936.677,217.4954" style="stroke:#181818;stroke-width:1.0;"/></g><!--MD5=[82526a912562210d5adbc121a965e2ad]
link contentvalidator to schemas--><g id="link_contentvalidator_schemas"><path d="M975.441,153.9596 C879.573,168.7359 729.935,192.761 601,217.6406 C596.89,218.4337 592.673,219.2749 588.421,220.1442 " fill="none" id="contentvalidator-to-schemas" style="stroke:#181818;stroke-width:1.0;"/><polygon fill="#181818" points="583.419,221.1764,593.0421,223.2732,588.3156,220.165,591.4238,215.4386,583.419,221.1764" style="stroke:#181818;stroke-width:1.0;"/></g><!--MD5=[a8260f98ed4bc1c2955c11afbcf76ddf]
link contentvalidator to urnresolver--><g id="link_contentvalidator_urnresolver"><path d="M1121.14,157.7284 C1163.27,174.3415 1224.89,198.6367 1268.34,215.7718 " fill="none" id="contentvalidator-to-urnresolver" style="stroke:#181818;stroke-width:1.0;"/><polygon fill="#181818" points="1273.02,217.6157,1266.1074,210.6003,1268.3667,215.7864,1263.1805,218.0456,1273.02,217.6157" style="stroke:#181818;stroke-width:1.0;"/></g><!--MD5=[c45f192cafb334e2ccb06f34add13204]
link crypto to schemas--><g id="link_crypto_schemas"><path d="M503.278,157.8432 C506.006,173.4094 509.906,195.6616 512.851,212.468 " fill="none" id="crypto-to-schemas" style="stroke:#181818;stroke-width:1.0;"/><polygon fill="#181818" points="513.732,217.4954,516.1185,207.9401,512.869,212.5705,508.2386,209.3209,513.732,217.4954" style="stroke:#181818;stroke-width:1.0;"/></g><!--MD5=[d91e2e6d0ca713fa69b3dc7b86c4c820]
link crypto to ethconnect--><g id="link_crypto_ethconnect"><path d="M465.68,157.8432 C435.638,174.2145 392.024,197.9815 360.738,215.0304 " fill="none" id="crypto-to-ethconnect" style="stroke:#181818;stroke-width:1.0;"/><polygon fill="#181818" points="356.215,217.4954,366.0317,216.7007,360.6053,215.1026,362.2033,209.6762,356.215,217.4954" style="stroke:#181818;stroke-width:1.0;"/></g><!--MD5=[65b1e695f05aeb07568e7f38ee1cf26e]
link snapshotsfetcher to catalyststorage--><g id="link_snapshotsfetcher_catalyststorage"><path d="M756.395,157.8432 C747.493,173.5436 734.734,196.0458 725.177,212.9014 " fill="none" id="snapshotsfetcher-to-catalyststorage" style="stroke:#181818;stroke-width:1.0;"/><polygon fill="#181818" points="722.572,217.4954,730.4904,211.6389,725.0379,213.1458,723.531,207.6934,722.572,217.4954" style="stroke:#181818;stroke-width:1.0;"/></g><!--MD5=[7204b6c130a88f094f15ecb6a718e02f]
link snapshotsfetcher to hashing--><g id="link_snapshotsfetcher_hashing"><path d="M793.415,157.8432 C816.253,174.0132 849.281,197.3982 873.292,214.3986 " fill="none" id="snapshotsfetcher-to-hashing" style="stroke:#181818;stroke-width:1.0;"/><polygon fill="#181818" points="877.666,217.4954,872.6332,209.0296,873.5856,214.6057,868.0096,215.5582,877.666,217.4954" style="stroke:#181818;stroke-width:1.0;"/></g><!--MD5=[65d9e53c1e8539e9dd5b07116bd781b3]
link snapshotsfetcher to schemas--><g id="link_snapshotsfetcher_schemas"><path d="M719.093,157.7284 C676.276,174.3415 613.66,198.6367 569.497,215.7718 " fill="none" id="snapshotsfetcher-to-schemas" style="stroke:#181818;stroke-width:1.0;"/><polygon fill="#181818" points="564.745,217.6157,574.5825,218.0894,569.4064,215.8071,571.6887,210.6311,564.745,217.6157" style="stroke:#181818;stroke-width:1.0;"/></g><!--MD5=[abcc084b14f25cfb9afd563c7456d70e]
@startuml
header "Content Server"
artifact "content-server" as contentserver
artifact "catalyst-api-specs" as catalystapispecs
artifact "@dcl/catalyst-contracts" as catalystcontracts
artifact "@dcl/content-validator" as contentvalidator
artifact "@dcl/crypto" as crypto
artifact "@dcl/hashing" as hashing
artifact "@dcl/schemas" as schemas
artifact "@dcl/snapshots-fetcher" as snapshotsfetcher
artifact "@dcl/urn-resolver" as urnresolver
artifact "eth-connect" as ethconnect
artifact "@dcl/content-hash-tree" as contenthashtree
artifact "@dcl/catalyst-storage" as catalyststorage
artifact "dcl-catalyst-client" as catalystclient
artifact "dcl-catalyst-commons" as catalystcommons

contentserver - -> catalystapispecs
contentserver - -> catalystcontracts
contentserver - -> contentvalidator
contentserver - -> crypto
contentserver - -> hashing
contentserver - -> schemas
contentserver - -> snapshotsfetcher
contentserver - -> urnresolver
contentserver - -> catalystclient
catalystclient - -> catalystcommons
catalystcontracts - -> ethconnect
contentvalidator - -> contenthashtree
contentvalidator - -> hashing
contentvalidator - -> schemas
contentvalidator - -> urnresolver
crypto - -> schemas
crypto - -> ethconnect
snapshotsfetcher - -> catalyststorage
snapshotsfetcher - -> hashing
snapshotsfetcher - -> schemas
@enduml

PlantUML version 1.2022.7beta2(Unknown compile time)
(GPL source distribution)
Java Runtime: Java(TM) SE Runtime Environment
JVM: Java HotSpot(TM) 64-Bit Server VM
Default Encoding: UTF-8
Language: en
Country: US
--></g></svg>