<?xml version="1.0" encoding="UTF-8" standalone="no"?><svg xmlns="http://www.w3.org/2000/svg" xmlns:xlink="http://www.w3.org/1999/xlink" contentStyleType="text/css" height="263px" preserveAspectRatio="none" style="width:811px;height:263px;background:#FFFFFF;" version="1.1" viewBox="0 0 811 263" width="811px" zoomAndPan="magnify"><defs/><g><rect height="11.7773" style="stroke:#00000000;stroke-width:1.0;fill:none;" width="76" x="721" y="0"/><text fill="#888888" font-family="sans-serif" font-size="10" lengthAdjust="spacing" textLength="76" x="721" y="9.668">Lambdas Server</text><!--MD5=[581e4759af2a3ba074aee7eb5f524cfe]
entity lambdasserver--><g id="elem_lambdasserver"><rect fill="#F1F1F1" height="39.4883" rx="2.5" ry="2.5" style="stroke:#181818;stroke-width:0.5;" width="138" x="412" y="19.7773"/><polygon fill="#F1F1F1" points="533,24.7773,533,38.7773,545,38.7773,545,30.7773,539,24.7773,533,24.7773" style="stroke:#181818;stroke-width:0.5;"/><line style="stroke:#181818;stroke-width:0.5;" x1="539" x2="539" y1="24.7773" y2="30.7773"/><line style="stroke:#181818;stroke-width:0.5;" x1="545" x2="539" y1="30.7773" y2="30.7773"/><text fill="#000000" font-family="sans-serif" font-size="14" lengthAdjust="spacing" textLength="108" x="422" y="46.3125">lambdas-server</text></g><!--MD5=[549b2c0bab588137aeb052f9dbbc6263]
entity catalystapispecs--><g id="elem_catalystapispecs"><rect fill="#F1F1F1" height="39.4883" rx="2.5" ry="2.5" style="stroke:#181818;stroke-width:0.5;" width="156" x="7" y="118.7773"/><polygon fill="#F1F1F1" points="146,123.7773,146,137.7773,158,137.7773,158,129.7773,152,123.7773,146,123.7773" style="stroke:#181818;stroke-width:0.5;"/><line style="stroke:#181818;stroke-width:0.5;" x1="152" x2="152" y1="123.7773" y2="129.7773"/><line style="stroke:#181818;stroke-width:0.5;" x1="158" x2="152" y1="129.7773" y2="129.7773"/><text fill="#000000" font-family="sans-serif" font-size="14" lengthAdjust="spacing" textLength="126" x="17" y="145.3125">catalyst-api-specs</text></g><!--MD5=[126f4549bd88685c817470eb62ade7f4]
entity catalystcontracts--><g id="elem_catalystcontracts"><rect fill="#F1F1F1" height="39.4883" rx="2.5" ry="2.5" style="stroke:#181818;stroke-width:0.5;" width="191" x="198.5" y="118.7773"/><polygon fill="#F1F1F1" points="372.5,123.7773,372.5,137.7773,384.5,137.7773,384.5,129.7773,378.5,123.7773,372.5,123.7773" style="stroke:#181818;stroke-width:0.5;"/><line style="stroke:#181818;stroke-width:0.5;" x1="378.5" x2="378.5" y1="123.7773" y2="129.7773"/><line style="stroke:#181818;stroke-width:0.5;" x1="384.5" x2="378.5" y1="129.7773" y2="129.7773"/><text fill="#000000" font-family="sans-serif" font-size="14" lengthAdjust="spacing" textLength="161" x="208.5" y="145.3125">@dcl/catalyst-contracts</text></g><!--MD5=[6cc4354bc172bfab4bc5d504e938f9dd]
entity crypto--><g id="elem_crypto"><rect fill="#F1F1F1" height="39.4883" rx="2.5" ry="2.5" style="stroke:#181818;stroke-width:0.5;" width="112" x="425" y="118.7773"/><polygon fill="#F1F1F1" points="520,123.7773,520,137.7773,532,137.7773,532,129.7773,526,123.7773,520,123.7773" style="stroke:#181818;stroke-width:0.5;"/><line style="stroke:#181818;stroke-width:0.5;" x1="526" x2="526" y1="123.7773" y2="129.7773"/><line style="stroke:#181818;stroke-width:0.5;" x1="532" x2="526" y1="129.7773" y2="129.7773"/><text fill="#000000" font-family="sans-serif" font-size="14" lengthAdjust="spacing" textLength="82" x="435" y="145.3125">@dcl/crypto</text></g><!--MD5=[f50278905982483810086d91fb8fa489]
entity schemas--><g id="elem_schemas"><rect fill="#F1F1F1" height="39.4883" rx="2.5" ry="2.5" style="stroke:#181818;stroke-width:0.5;" width="128" x="471" y="217.7773"/><polygon fill="#F1F1F1" points="582,222.7773,582,236.7773,594,236.7773,594,228.7773,588,222.7773,582,222.7773" style="stroke:#181818;stroke-width:0.5;"/><line style="stroke:#181818;stroke-width:0.5;" x1="588" x2="588" y1="222.7773" y2="228.7773"/><line style="stroke:#181818;stroke-width:0.5;" x1="594" x2="588" y1="228.7773" y2="228.7773"/><text fill="#000000" font-family="sans-serif" font-size="14" lengthAdjust="spacing" textLength="98" x="481" y="244.3125">@dcl/schemas</text></g><!--MD5=[51ce5b29dd3532928cb20d83f06e30eb]
entity urnresolver--><g id="elem_urnresolver"><rect fill="#F1F1F1" height="39.4883" rx="2.5" ry="2.5" style="stroke:#181818;stroke-width:0.5;" width="156" x="643" y="118.7773"/><polygon fill="#F1F1F1" points="782,123.7773,782,137.7773,794,137.7773,794,129.7773,788,123.7773,782,123.7773" style="stroke:#181818;stroke-width:0.5;"/><line style="stroke:#181818;stroke-width:0.5;" x1="788" x2="788" y1="123.7773" y2="129.7773"/><line style="stroke:#181818;stroke-width:0.5;" x1="794" x2="788" y1="129.7773" y2="129.7773"/><text fill="#000000" font-family="sans-serif" font-size="14" lengthAdjust="spacing" textLength="126" x="653" y="145.3125">@dcl/urn-resolver</text></g><!--MD5=[4059f9144958a730a0ff360cc593e040]
entity ethconnect--><g id="elem_ethconnect"><rect fill="#F1F1F1" height="39.4883" rx="2.5" ry="2.5" style="stroke:#181818;stroke-width:0.5;" width="114" x="307" y="217.7773"/><polygon fill="#F1F1F1" points="404,222.7773,404,236.7773,416,236.7773,416,228.7773,410,222.7773,404,222.7773" style="stroke:#181818;stroke-width:0.5;"/><line style="stroke:#181818;stroke-width:0.5;" x1="410" x2="410" y1="222.7773" y2="228.7773"/><line style="stroke:#181818;stroke-width:0.5;" x1="416" x2="410" y1="228.7773" y2="228.7773"/><text fill="#000000" font-family="sans-serif" font-size="14" lengthAdjust="spacing" textLength="84" x="317" y="244.3125">eth-connect</text></g><!--MD5=[b797a87e23a2920057b8b1492fce927f]
link lambdasserver to catalystapispecs--><g id="link_lambdasserver_catalystapispecs"><path d="M411.57,57.2873 C343.01,74.0773 238.22,99.7473 165.92,117.4573 " fill="none" id="lambdasserver-to-catalystapispecs" style="stroke:#181818;stroke-width:1.0;"/><polygon fill="#181818" points="160.77,118.7173,170.4619,120.4689,165.6274,117.5316,168.5646,112.6971,160.77,118.7173" style="stroke:#181818;stroke-width:1.0;"/></g><!--MD5=[1e2450b5d6e9a75941cf9acdba9ad09d]
link lambdasserver to catalystcontracts--><g id="link_lambdasserver_catalystcontracts"><path d="M444.94,58.9773 C413.38,75.3473 367.56,99.1173 334.7,116.1673 " fill="none" id="lambdasserver-to-catalystcontracts" style="stroke:#181818;stroke-width:1.0;"/><polygon fill="#181818" points="329.94,118.6273,339.7714,118.042,334.3803,116.3287,336.0936,110.9375,329.94,118.6273" style="stroke:#181818;stroke-width:1.0;"/></g><!--MD5=[5d4b3856d5d7270518031973e194b329]
link lambdasserver to crypto--><g id="link_lambdasserver_crypto"><path d="M481,58.9773 C481,74.5473 481,96.7973 481,113.6073 " fill="none" id="lambdasserver-to-crypto" style="stroke:#181818;stroke-width:1.0;"/><polygon fill="#181818" points="481,118.6273,485,109.6273,481,113.6273,477,109.6273,481,118.6273" style="stroke:#181818;stroke-width:1.0;"/></g><!--MD5=[cfabb8b6bac975eff0b49a6267c1cf8a]
link lambdasserver to schemas--><g id="link_lambdasserver_schemas"><path d="M506.85,59.0173 C524.1,73.2173 545.32,94.4073 555,118.7773 C567.38,149.9673 556.05,188.7973 546.08,213.0673 " fill="none" id="lambdasserver-to-schemas" style="stroke:#181818;stroke-width:1.0;"/><polygon fill="#181818" points="544.11,217.7273,551.2965,210.9928,546.0554,213.1213,543.9269,207.8802,544.11,217.7273" style="stroke:#181818;stroke-width:1.0;"/></g><!--MD5=[6c54aaad50bd07624799906320462e17]
link lambdasserver to urnresolver--><g id="link_lambdasserver_urnresolver"><path d="M526.99,58.8673 C568.01,75.4473 627.96,99.6773 670.35,116.8073 " fill="none" id="lambdasserver-to-urnresolver" style="stroke:#181818;stroke-width:1.0;"/><polygon fill="#181818" points="675.17,118.7573,668.3444,111.6573,670.5395,116.8709,665.326,119.066,675.17,118.7573" style="stroke:#181818;stroke-width:1.0;"/></g><!--MD5=[d2957ecac3ef3de9c0229a8ade92ad2e]
link catalystcontracts to ethconnect--><g id="link_catalystcontracts_ethconnect"><path d="M307.5,157.9773 C318.92,173.8173 335.34,196.5673 347.54,213.4673 " fill="none" id="catalystcontracts-to-ethconnect" style="stroke:#181818;stroke-width:1.0;"/><polygon fill="#181818" points="350.54,217.6273,348.5381,207.9841,347.623,213.5664,342.0407,212.6513,350.54,217.6273" style="stroke:#181818;stroke-width:1.0;"/></g><!--MD5=[c45f192cafb334e2ccb06f34add13204]
link crypto to schemas--><g id="link_crypto_schemas"><path d="M491.41,157.9773 C500.15,173.6773 512.68,196.1873 522.06,213.0373 " fill="none" id="crypto-to-schemas" style="stroke:#181818;stroke-width:1.0;"/><polygon fill="#181818" points="524.62,217.6273,523.7214,207.8196,522.1809,213.2626,516.7378,211.7221,524.62,217.6273" style="stroke:#181818;stroke-width:1.0;"/></g><!--MD5=[d91e2e6d0ca713fa69b3dc7b86c4c820]
link crypto to ethconnect--><g id="link_crypto_ethconnect"><path d="M458.44,157.9773 C439.02,174.0873 410.96,197.3373 390.48,214.3273 " fill="none" id="crypto-to-ethconnect" style="stroke:#181818;stroke-width:1.0;"/><polygon fill="#181818" points="386.49,217.6273,395.9657,214.942,390.3323,214.4278,390.8465,208.7944,386.49,217.6273" style="stroke:#181818;stroke-width:1.0;"/></g><!--MD5=[501fdaf76d571945861a4d3062d17a51]
@startuml
header "Content Server"
artifact "content-server" as contentserver
artifact "catalyst-api-specs" as catalystapispecs
artifact "@dcl/catalyst-contracts" as catalystcontracts
artifact "@dcl/content-validator" as contentvalidator
artifact "@dcl/crypto" as crypto
artifact "@dcl/hashing" as hashing
artifact "@dcl/schemas" as schemas
artifact "@dcl/snapshots-fetcher" as snapshotsfetcher
artifact "@dcl/urn-resolver" as urnresolver
artifact "eth-connect" as ethconnect
artifact "@dcl/content-hash-tree" as contenthashtree
artifact "@dcl/catalyst-storage" as catalyststorage

contentserver - -> catalystapispecs
contentserver - -> catalystcontracts
contentserver - -> contentvalidator
contentserver - -> crypto
contentserver - -> hashing
contentserver - -> schemas
contentserver - -> snapshotsfetcher
contentserver - -> urnresolver
catalystcontracts - -> ethconnect
contentvalidator - -> contenthashtree
contentvalidator - -> hashing
contentvalidator - -> schemas
contentvalidator - -> urnresolver
contentvalidator - -> urnresolver
crypto - -> schemas
crypto - -> ethconnect
snapshotsfetcher - -> catalyststorage
snapshotsfetcher - -> hashing
snapshotsfetcher - -> schemas

newpage
header "Lambdas Server"
artifact "lambdas-server" as lambdasserver
artifact "catalyst-api-specs" as catalystapispecs
artifact "@dcl/catalyst-contracts" as catalystcontracts
artifact "@dcl/crypto" as crypto
artifact "@dcl/schemas" as schemas
artifact "@dcl/urn-resolver" as urnresolver
artifact "eth-connect" as ethconnect

lambdasserver - -> catalystapispecs
lambdasserver - -> catalystcontracts
lambdasserver - -> crypto
lambdasserver - -> schemas
lambdasserver - -> urnresolver
catalystcontracts - -> ethconnect
crypto - -> schemas
crypto - -> ethconnect

@enduml

PlantUML version 1.2022.6(Tue Jun 21 14:34:49 ART 2022)
(GPL source distribution)
Java Runtime: OpenJDK Runtime Environment
JVM: OpenJDK 64-Bit Server VM
Default Encoding: UTF-8
Language: en
Country: AR
--></g></svg>