<?xml version="1.0" encoding="UTF-8" standalone="no"?><svg xmlns="http://www.w3.org/2000/svg" xmlns:xlink="http://www.w3.org/1999/xlink" contentStyleType="text/css" height="262px" preserveAspectRatio="none" style="width:1112px;height:262px;background:#FFFFFF;" version="1.1" viewBox="0 0 1112 262" width="1112px" zoomAndPan="magnify"><defs/><g><rect height="11.6406" style="stroke:#00000000;stroke-width:1.0;fill:none;" width="88" x="1010" y="0"/><text fill="#888888" font-family="sans-serif" font-size="10" lengthAdjust="spacing" textLength="88" x="1010" y="9.2822">Lambdas Server</text><!--MD5=[581e4759af2a3ba074aee7eb5f524cfe]
entity lambdasserver--><g id="elem_lambdasserver"><rect fill="#F1F1F1" height="39.2969" rx="2.5" ry="2.5" style="stroke:#181818;stroke-width:0.5;" width="141" x="541.5" y="19.6406"/><polygon fill="#F1F1F1" points="665.5,24.6406,665.5,38.6406,677.5,38.6406,677.5,30.6406,671.5,24.6406,665.5,24.6406" style="stroke:#181818;stroke-width:0.5;"/><line style="stroke:#181818;stroke-width:0.5;" x1="671.5" x2="671.5" y1="24.6406" y2="30.6406"/><line style="stroke:#181818;stroke-width:0.5;" x1="677.5" x2="671.5" y1="30.6406" y2="30.6406"/><text fill="#000000" font-family="sans-serif" font-size="14" lengthAdjust="spacing" textLength="111" x="551.5" y="45.6357">lambdas-server</text></g><!--MD5=[549b2c0bab588137aeb052f9dbbc6263]
entity catalystapispecs--><g id="elem_catalystapispecs"><rect fill="#F1F1F1" height="39.2969" rx="2.5" ry="2.5" style="stroke:#181818;stroke-width:0.5;" width="162" x="7" y="118.6406"/><polygon fill="#F1F1F1" points="152,123.6406,152,137.6406,164,137.6406,164,129.6406,158,123.6406,152,123.6406" style="stroke:#181818;stroke-width:0.5;"/><line style="stroke:#181818;stroke-width:0.5;" x1="158" x2="158" y1="123.6406" y2="129.6406"/><line style="stroke:#181818;stroke-width:0.5;" x1="164" x2="158" y1="129.6406" y2="129.6406"/><text fill="#000000" font-family="sans-serif" font-size="14" lengthAdjust="spacing" textLength="132" x="17" y="144.6357">catalyst-api-specs</text></g><!--MD5=[126f4549bd88685c817470eb62ade7f4]
entity catalystcontracts--><g id="elem_catalystcontracts"><rect fill="#F1F1F1" height="39.2969" rx="2.5" ry="2.5" style="stroke:#181818;stroke-width:0.5;" width="202" x="204" y="118.6406"/><polygon fill="#F1F1F1" points="389,123.6406,389,137.6406,401,137.6406,401,129.6406,395,123.6406,389,123.6406" style="stroke:#181818;stroke-width:0.5;"/><line style="stroke:#181818;stroke-width:0.5;" x1="395" x2="395" y1="123.6406" y2="129.6406"/><line style="stroke:#181818;stroke-width:0.5;" x1="401" x2="395" y1="129.6406" y2="129.6406"/><text fill="#000000" font-family="sans-serif" font-size="14" lengthAdjust="spacing" textLength="172" x="214" y="144.6357">@dcl/catalyst-contracts</text></g><!--MD5=[6cc4354bc172bfab4bc5d504e938f9dd]
entity crypto--><g id="elem_crypto"><rect fill="#F1F1F1" height="39.2969" rx="2.5" ry="2.5" style="stroke:#181818;stroke-width:0.5;" width="118" x="441" y="118.6406"/><polygon fill="#F1F1F1" points="542,123.6406,542,137.6406,554,137.6406,554,129.6406,548,123.6406,542,123.6406" style="stroke:#181818;stroke-width:0.5;"/><line style="stroke:#181818;stroke-width:0.5;" x1="548" x2="548" y1="123.6406" y2="129.6406"/><line style="stroke:#181818;stroke-width:0.5;" x1="554" x2="548" y1="129.6406" y2="129.6406"/><text fill="#000000" font-family="sans-serif" font-size="14" lengthAdjust="spacing" textLength="88" x="451" y="144.6357">@dcl/crypto</text></g><!--MD5=[f50278905982483810086d91fb8fa489]
entity schemas--><g id="elem_schemas"><rect fill="#F1F1F1" height="39.2969" rx="2.5" ry="2.5" style="stroke:#181818;stroke-width:0.5;" width="132" x="490" y="217.6406"/><polygon fill="#F1F1F1" points="605,222.6406,605,236.6406,617,236.6406,617,228.6406,611,222.6406,605,222.6406" style="stroke:#181818;stroke-width:0.5;"/><line style="stroke:#181818;stroke-width:0.5;" x1="611" x2="611" y1="222.6406" y2="228.6406"/><line style="stroke:#181818;stroke-width:0.5;" x1="617" x2="611" y1="228.6406" y2="228.6406"/><text fill="#000000" font-family="sans-serif" font-size="14" lengthAdjust="spacing" textLength="102" x="500" y="243.6357">@dcl/schemas</text></g><!--MD5=[51ce5b29dd3532928cb20d83f06e30eb]
entity urnresolver--><g id="elem_urnresolver"><rect fill="#F1F1F1" height="39.2969" rx="2.5" ry="2.5" style="stroke:#181818;stroke-width:0.5;" width="157" x="665.5" y="118.6406"/><polygon fill="#F1F1F1" points="805.5,123.6406,805.5,137.6406,817.5,137.6406,817.5,129.6406,811.5,123.6406,805.5,123.6406" style="stroke:#181818;stroke-width:0.5;"/><line style="stroke:#181818;stroke-width:0.5;" x1="811.5" x2="811.5" y1="123.6406" y2="129.6406"/><line style="stroke:#181818;stroke-width:0.5;" x1="817.5" x2="811.5" y1="129.6406" y2="129.6406"/><text fill="#000000" font-family="sans-serif" font-size="14" lengthAdjust="spacing" textLength="127" x="675.5" y="144.6357">@dcl/urn-resolver</text></g><!--MD5=[4059f9144958a730a0ff360cc593e040]
entity ethconnect--><g id="elem_ethconnect"><rect fill="#F1F1F1" height="39.2969" rx="2.5" ry="2.5" style="stroke:#181818;stroke-width:0.5;" width="120" x="262" y="217.6406"/><polygon fill="#F1F1F1" points="365,222.6406,365,236.6406,377,236.6406,377,228.6406,371,222.6406,365,222.6406" style="stroke:#181818;stroke-width:0.5;"/><line style="stroke:#181818;stroke-width:0.5;" x1="371" x2="371" y1="222.6406" y2="228.6406"/><line style="stroke:#181818;stroke-width:0.5;" x1="377" x2="371" y1="228.6406" y2="228.6406"/><text fill="#000000" font-family="sans-serif" font-size="14" lengthAdjust="spacing" textLength="90" x="272" y="243.6357">eth-connect</text></g><!--MD5=[b3ec3b69ca62dc1e36823e15242eebd5]
entity catalystclient--><g id="elem_catalystclient"><rect fill="#F1F1F1" height="39.2969" rx="2.5" ry="2.5" style="stroke:#181818;stroke-width:0.5;" width="161" x="857.5" y="118.6406"/><polygon fill="#F1F1F1" points="1001.5,123.6406,1001.5,137.6406,1013.5,137.6406,1013.5,129.6406,1007.5,123.6406,1001.5,123.6406" style="stroke:#181818;stroke-width:0.5;"/><line style="stroke:#181818;stroke-width:0.5;" x1="1007.5" x2="1007.5" y1="123.6406" y2="129.6406"/><line style="stroke:#181818;stroke-width:0.5;" x1="1013.5" x2="1007.5" y1="129.6406" y2="129.6406"/><text fill="#000000" font-family="sans-serif" font-size="14" lengthAdjust="spacing" textLength="131" x="867.5" y="144.6357">dcl-catalyst-client</text></g><!--MD5=[ddfbcfa8a42cff53c7e8cea880dde2de]
entity catalystcommons--><g id="elem_catalystcommons"><rect fill="#F1F1F1" height="39.2969" rx="2.5" ry="2.5" style="stroke:#181818;stroke-width:0.5;" width="190" x="910" y="217.6406"/><polygon fill="#F1F1F1" points="1083,222.6406,1083,236.6406,1095,236.6406,1095,228.6406,1089,222.6406,1083,222.6406" style="stroke:#181818;stroke-width:0.5;"/><line style="stroke:#181818;stroke-width:0.5;" x1="1089" x2="1089" y1="222.6406" y2="228.6406"/><line style="stroke:#181818;stroke-width:0.5;" x1="1095" x2="1089" y1="228.6406" y2="228.6406"/><text fill="#000000" font-family="sans-serif" font-size="14" lengthAdjust="spacing" textLength="160" x="920" y="243.6357">dcl-catalyst-commons</text></g><!--MD5=[b797a87e23a2920057b8b1492fce927f]
link lambdasserver to catalystapispecs--><g id="link_lambdasserver_catalystapispecs"><path d="M541.129,53.1026 C456.573,68.5906 310.939,95.3366 186,118.6406 C182.11,119.3656 178.134,120.1096 174.118,120.8616 " fill="none" id="lambdasserver-to-catalystapispecs" style="stroke:#181818;stroke-width:1.0;"/><polygon fill="#181818" points="169.013,121.8186,178.596,124.0915,173.9274,120.8972,177.1217,116.2285,169.013,121.8186" style="stroke:#181818;stroke-width:1.0;"/></g><!--MD5=[1e2450b5d6e9a75941cf9acdba9ad09d]
link lambdasserver to catalystcontracts--><g id="link_lambdasserver_catalystcontracts"><path d="M553.171,58.7286 C500.272,75.4426 422.763,99.9316 368.481,117.0836 " fill="none" id="lambdasserver-to-catalystcontracts" style="stroke:#181818;stroke-width:1.0;"/><polygon fill="#181818" points="363.63,118.6156,373.4168,119.7192,368.3978,117.1097,371.0073,112.0907,363.63,118.6156" style="stroke:#181818;stroke-width:1.0;"/></g><!--MD5=[5d4b3856d5d7270518031973e194b329]
link lambdasserver to crypto--><g id="link_lambdasserver_crypto"><path d="M590.405,58.8436 C571.812,74.9466 544.957,98.2046 525.349,115.1866 " fill="none" id="lambdasserver-to-crypto" style="stroke:#181818;stroke-width:1.0;"/><polygon fill="#181818" points="521.528,118.4956,530.9491,115.6247,525.3067,115.2212,525.7101,109.5788,521.528,118.4956" style="stroke:#181818;stroke-width:1.0;"/></g><!--MD5=[cfabb8b6bac975eff0b49a6267c1cf8a]
link lambdasserver to schemas--><g id="link_lambdasserver_schemas"><path d="M606.63,58.9336 C596.387,94.7876 574.072,172.889 562.802,212.3325 " fill="none" id="lambdasserver-to-schemas" style="stroke:#181818;stroke-width:1.0;"/><polygon fill="#181818" points="561.353,217.4042,567.6713,209.8492,562.7265,212.5966,559.9791,207.6517,561.353,217.4042" style="stroke:#181818;stroke-width:1.0;"/></g><!--MD5=[6c54aaad50bd07624799906320462e17]
link lambdasserver to urnresolver--><g id="link_lambdasserver_urnresolver"><path d="M637.451,58.8436 C659.456,75.0136 691.278,98.3986 714.413,115.3986 " fill="none" id="lambdasserver-to-urnresolver" style="stroke:#181818;stroke-width:1.0;"/><polygon fill="#181818" points="718.627,118.4956,713.7427,109.9432,714.5977,115.5351,709.0058,116.3901,718.627,118.4956" style="stroke:#181818;stroke-width:1.0;"/></g><!--MD5=[98c7cfe851fe692d1732f4cec3ac6bd6]
link lambdasserver to catalystclient--><g id="link_lambdasserver_catalystclient"><path d="M674.47,58.7286 C730.756,75.4756 813.28,100.0306 870.938,117.1866 " fill="none" id="lambdasserver-to-catalystclient" style="stroke:#181818;stroke-width:1.0;"/><polygon fill="#181818" points="875.741,118.6156,868.2556,112.215,870.9487,117.1896,865.974,119.8827,875.741,118.6156" style="stroke:#181818;stroke-width:1.0;"/></g><!--MD5=[b3987f374f428d277575a34bbde31a0c]
link lambdasserver to catalystcommons--><g id="link_lambdasserver_catalystcommons"><path d="M682.856,42.6886 C791.642,48.2566 991.895,65.6206 1036,118.6406 C1058.45,145.6256 1038.62,187.164 1021.99,212.9417 " fill="none" id="lambdasserver-to-catalystcommons" style="stroke:#181818;stroke-width:1.0;"/><polygon fill="#181818" points="1019.15,217.2514,1027.4478,211.9461,1021.9056,213.0793,1020.7724,207.5371,1019.15,217.2514" style="stroke:#181818;stroke-width:1.0;"/></g><!--MD5=[f9563b62f526630219fad096cfbc74c7]
link catalystclient to catalystcommons--><g id="link_catalystclient_catalystcommons"><path d="M950.918,157.8432 C961.856,173.6778 977.572,196.431 989.246,213.3323 " fill="none" id="catalystclient-to-catalystcommons" style="stroke:#181818;stroke-width:1.0;"/><polygon fill="#181818" points="992.121,217.4954,990.2974,207.8169,989.2794,213.3814,983.7149,212.3634,992.121,217.4954" style="stroke:#181818;stroke-width:1.0;"/></g><!--MD5=[d2957ecac3ef3de9c0229a8ade92ad2e]
link catalystcontracts to ethconnect--><g id="link_catalystcontracts_ethconnect"><path d="M308.278,157.8432 C311.006,173.4094 314.906,195.6616 317.851,212.468 " fill="none" id="catalystcontracts-to-ethconnect" style="stroke:#181818;stroke-width:1.0;"/><polygon fill="#181818" points="318.732,217.4954,321.1185,207.9401,317.869,212.5705,313.2386,209.3209,318.732,217.4954" style="stroke:#181818;stroke-width:1.0;"/></g><!--MD5=[c45f192cafb334e2ccb06f34add13204]
link crypto to schemas--><g id="link_crypto_schemas"><path d="M510.797,157.8432 C519.862,173.5436 532.852,196.0458 542.584,212.9014 " fill="none" id="crypto-to-schemas" style="stroke:#181818;stroke-width:1.0;"/><polygon fill="#181818" points="545.236,217.4954,544.2002,207.7012,542.7361,213.1653,537.272,211.7011,545.236,217.4954" style="stroke:#181818;stroke-width:1.0;"/></g><!--MD5=[d91e2e6d0ca713fa69b3dc7b86c4c820]
link crypto to ethconnect--><g id="link_crypto_ethconnect"><path d="M465.68,157.8432 C435.638,174.2145 392.024,197.9815 360.738,215.0304 " fill="none" id="crypto-to-ethconnect" style="stroke:#181818;stroke-width:1.0;"/><polygon fill="#181818" points="356.215,217.4954,366.0317,216.7007,360.6053,215.1026,362.2033,209.6762,356.215,217.4954" style="stroke:#181818;stroke-width:1.0;"/></g><!--MD5=[f5410f7fa4dfd73b35321393f82a27b0]
@startuml
header "Lambdas Server"
artifact "lambdas-server" as lambdasserver
artifact "catalyst-api-specs" as catalystapispecs
artifact "@dcl/catalyst-contracts" as catalystcontracts
artifact "@dcl/crypto" as crypto
artifact "@dcl/schemas" as schemas
artifact "@dcl/urn-resolver" as urnresolver
artifact "eth-connect" as ethconnect
artifact "dcl-catalyst-client" as catalystclient
artifact "dcl-catalyst-commons" as catalystcommons

lambdasserver - -> catalystapispecs
lambdasserver - -> catalystcontracts
lambdasserver - -> crypto
lambdasserver - -> schemas
lambdasserver - -> urnresolver
lambdasserver - -> catalystclient
lambdasserver - -> catalystcommons
catalystclient - -> catalystcommons
catalystcontracts - -> ethconnect
crypto - -> schemas
crypto - -> ethconnect
@enduml

PlantUML version 1.2022.7beta2(Unknown compile time)
(GPL source distribution)
Java Runtime: Java(TM) SE Runtime Environment
JVM: Java HotSpot(TM) 64-Bit Server VM
Default Encoding: UTF-8
Language: en
Country: US
--></g></svg>