<?xml version="1.0" encoding="UTF-8" standalone="no"?><svg xmlns="http://www.w3.org/2000/svg" xmlns:xlink="http://www.w3.org/1999/xlink" contentStyleType="text/css" height="263px" preserveAspectRatio="none" style="width:1372px;height:263px;background:#FFFFFF;" version="1.1" viewBox="0 0 1372 263" width="1372px" zoomAndPan="magnify"><defs/><g><rect height="11.7773" style="stroke:#00000000;stroke-width:1.0;fill:none;" width="72" x="1286" y="0"/><text fill="#888888" font-family="sans-serif" font-size="10" lengthAdjust="spacing" textLength="72" x="1286" y="9.668">Content Server</text><!--MD5=[8057ce764d90030538cfb75b46618f6d]
entity contentserver--><g id="elem_contentserver"><rect fill="#F1F1F1" height="39.4883" rx="2.5" ry="2.5" style="stroke:#181818;stroke-width:0.5;" width="132" x="599" y="19.7773"/><polygon fill="#F1F1F1" points="714,24.7773,714,38.7773,726,38.7773,726,30.7773,720,24.7773,714,24.7773" style="stroke:#181818;stroke-width:0.5;"/><line style="stroke:#181818;stroke-width:0.5;" x1="720" x2="720" y1="24.7773" y2="30.7773"/><line style="stroke:#181818;stroke-width:0.5;" x1="726" x2="720" y1="30.7773" y2="30.7773"/><text fill="#000000" font-family="sans-serif" font-size="14" lengthAdjust="spacing" textLength="102" x="609" y="46.3125">content-server</text></g><!--MD5=[549b2c0bab588137aeb052f9dbbc6263]
entity catalystapispecs--><g id="elem_catalystapispecs"><rect fill="#F1F1F1" height="39.4883" rx="2.5" ry="2.5" style="stroke:#181818;stroke-width:0.5;" width="156" x="7" y="118.7773"/><polygon fill="#F1F1F1" points="146,123.7773,146,137.7773,158,137.7773,158,129.7773,152,123.7773,146,123.7773" style="stroke:#181818;stroke-width:0.5;"/><line style="stroke:#181818;stroke-width:0.5;" x1="152" x2="152" y1="123.7773" y2="129.7773"/><line style="stroke:#181818;stroke-width:0.5;" x1="158" x2="152" y1="129.7773" y2="129.7773"/><text fill="#000000" font-family="sans-serif" font-size="14" lengthAdjust="spacing" textLength="126" x="17" y="145.3125">catalyst-api-specs</text></g><!--MD5=[126f4549bd88685c817470eb62ade7f4]
entity catalystcontracts--><g id="elem_catalystcontracts"><rect fill="#F1F1F1" height="39.4883" rx="2.5" ry="2.5" style="stroke:#181818;stroke-width:0.5;" width="191" x="198.5" y="118.7773"/><polygon fill="#F1F1F1" points="372.5,123.7773,372.5,137.7773,384.5,137.7773,384.5,129.7773,378.5,123.7773,372.5,123.7773" style="stroke:#181818;stroke-width:0.5;"/><line style="stroke:#181818;stroke-width:0.5;" x1="378.5" x2="378.5" y1="123.7773" y2="129.7773"/><line style="stroke:#181818;stroke-width:0.5;" x1="384.5" x2="378.5" y1="129.7773" y2="129.7773"/><text fill="#000000" font-family="sans-serif" font-size="14" lengthAdjust="spacing" textLength="161" x="208.5" y="145.3125">@dcl/catalyst-contracts</text></g><!--MD5=[a70e63df2b0daf121c6de1d3f5144ff5]
entity contentvalidator--><g id="elem_contentvalidator"><rect fill="#F1F1F1" height="39.4883" rx="2.5" ry="2.5" style="stroke:#181818;stroke-width:0.5;" width="189" x="960.5" y="118.7773"/><polygon fill="#F1F1F1" points="1132.5,123.7773,1132.5,137.7773,1144.5,137.7773,1144.5,129.7773,1138.5,123.7773,1132.5,123.7773" style="stroke:#181818;stroke-width:0.5;"/><line style="stroke:#181818;stroke-width:0.5;" x1="1138.5" x2="1138.5" y1="123.7773" y2="129.7773"/><line style="stroke:#181818;stroke-width:0.5;" x1="1144.5" x2="1138.5" y1="129.7773" y2="129.7773"/><text fill="#000000" font-family="sans-serif" font-size="14" lengthAdjust="spacing" textLength="159" x="970.5" y="145.3125">@dcl/content-validator</text></g><!--MD5=[6cc4354bc172bfab4bc5d504e938f9dd]
entity crypto--><g id="elem_crypto"><rect fill="#F1F1F1" height="39.4883" rx="2.5" ry="2.5" style="stroke:#181818;stroke-width:0.5;" width="112" x="425" y="118.7773"/><polygon fill="#F1F1F1" points="520,123.7773,520,137.7773,532,137.7773,532,129.7773,526,123.7773,520,123.7773" style="stroke:#181818;stroke-width:0.5;"/><line style="stroke:#181818;stroke-width:0.5;" x1="526" x2="526" y1="123.7773" y2="129.7773"/><line style="stroke:#181818;stroke-width:0.5;" x1="532" x2="526" y1="129.7773" y2="129.7773"/><text fill="#000000" font-family="sans-serif" font-size="14" lengthAdjust="spacing" textLength="82" x="435" y="145.3125">@dcl/crypto</text></g><!--MD5=[50c3cd0b79a81c36198e823695041bb3]
entity hashing--><g id="elem_hashing"><rect fill="#F1F1F1" height="39.4883" rx="2.5" ry="2.5" style="stroke:#181818;stroke-width:0.5;" width="124" x="812" y="217.7773"/><polygon fill="#F1F1F1" points="919,222.7773,919,236.7773,931,236.7773,931,228.7773,925,222.7773,919,222.7773" style="stroke:#181818;stroke-width:0.5;"/><line style="stroke:#181818;stroke-width:0.5;" x1="925" x2="925" y1="222.7773" y2="228.7773"/><line style="stroke:#181818;stroke-width:0.5;" x1="931" x2="925" y1="228.7773" y2="228.7773"/><text fill="#000000" font-family="sans-serif" font-size="14" lengthAdjust="spacing" textLength="94" x="822" y="244.3125">@dcl/hashing</text></g><!--MD5=[f50278905982483810086d91fb8fa489]
entity schemas--><g id="elem_schemas"><rect fill="#F1F1F1" height="39.4883" rx="2.5" ry="2.5" style="stroke:#181818;stroke-width:0.5;" width="128" x="434" y="217.7773"/><polygon fill="#F1F1F1" points="545,222.7773,545,236.7773,557,236.7773,557,228.7773,551,222.7773,545,222.7773" style="stroke:#181818;stroke-width:0.5;"/><line style="stroke:#181818;stroke-width:0.5;" x1="551" x2="551" y1="222.7773" y2="228.7773"/><line style="stroke:#181818;stroke-width:0.5;" x1="557" x2="551" y1="228.7773" y2="228.7773"/><text fill="#000000" font-family="sans-serif" font-size="14" lengthAdjust="spacing" textLength="98" x="444" y="244.3125">@dcl/schemas</text></g><!--MD5=[a6918ae6e4f08324b235002e20f5f2a0]
entity snapshotsfetcher--><g id="elem_snapshotsfetcher"><rect fill="#F1F1F1" height="39.4883" rx="2.5" ry="2.5" style="stroke:#181818;stroke-width:0.5;" width="195" x="643.5" y="118.7773"/><polygon fill="#F1F1F1" points="821.5,123.7773,821.5,137.7773,833.5,137.7773,833.5,129.7773,827.5,123.7773,821.5,123.7773" style="stroke:#181818;stroke-width:0.5;"/><line style="stroke:#181818;stroke-width:0.5;" x1="827.5" x2="827.5" y1="123.7773" y2="129.7773"/><line style="stroke:#181818;stroke-width:0.5;" x1="833.5" x2="827.5" y1="129.7773" y2="129.7773"/><text fill="#000000" font-family="sans-serif" font-size="14" lengthAdjust="spacing" textLength="165" x="653.5" y="145.3125">@dcl/snapshots-fetcher</text></g><!--MD5=[51ce5b29dd3532928cb20d83f06e30eb]
entity urnresolver--><g id="elem_urnresolver"><rect fill="#F1F1F1" height="39.4883" rx="2.5" ry="2.5" style="stroke:#181818;stroke-width:0.5;" width="156" x="1204" y="217.7773"/><polygon fill="#F1F1F1" points="1343,222.7773,1343,236.7773,1355,236.7773,1355,228.7773,1349,222.7773,1343,222.7773" style="stroke:#181818;stroke-width:0.5;"/><line style="stroke:#181818;stroke-width:0.5;" x1="1349" x2="1349" y1="222.7773" y2="228.7773"/><line style="stroke:#181818;stroke-width:0.5;" x1="1355" x2="1349" y1="228.7773" y2="228.7773"/><text fill="#000000" font-family="sans-serif" font-size="14" lengthAdjust="spacing" textLength="126" x="1214" y="244.3125">@dcl/urn-resolver</text></g><!--MD5=[4059f9144958a730a0ff360cc593e040]
entity ethconnect--><g id="elem_ethconnect"><rect fill="#F1F1F1" height="39.4883" rx="2.5" ry="2.5" style="stroke:#181818;stroke-width:0.5;" width="114" x="270" y="217.7773"/><polygon fill="#F1F1F1" points="367,222.7773,367,236.7773,379,236.7773,379,228.7773,373,222.7773,367,222.7773" style="stroke:#181818;stroke-width:0.5;"/><line style="stroke:#181818;stroke-width:0.5;" x1="373" x2="373" y1="222.7773" y2="228.7773"/><line style="stroke:#181818;stroke-width:0.5;" x1="379" x2="373" y1="228.7773" y2="228.7773"/><text fill="#000000" font-family="sans-serif" font-size="14" lengthAdjust="spacing" textLength="84" x="280" y="244.3125">eth-connect</text></g><!--MD5=[653231390bd993b1a6fb767479edfb21]
entity contenthashtree--><g id="elem_contenthashtree"><rect fill="#F1F1F1" height="39.4883" rx="2.5" ry="2.5" style="stroke:#181818;stroke-width:0.5;" width="197" x="971.5" y="217.7773"/><polygon fill="#F1F1F1" points="1151.5,222.7773,1151.5,236.7773,1163.5,236.7773,1163.5,228.7773,1157.5,222.7773,1151.5,222.7773" style="stroke:#181818;stroke-width:0.5;"/><line style="stroke:#181818;stroke-width:0.5;" x1="1157.5" x2="1157.5" y1="222.7773" y2="228.7773"/><line style="stroke:#181818;stroke-width:0.5;" x1="1163.5" x2="1157.5" y1="228.7773" y2="228.7773"/><text fill="#000000" font-family="sans-serif" font-size="14" lengthAdjust="spacing" textLength="167" x="981.5" y="244.3125">@dcl/content-hash-tree</text></g><!--MD5=[412156e8099e6575685a30315695ebe5]
entity catalyststorage--><g id="elem_catalyststorage"><rect fill="#F1F1F1" height="39.4883" rx="2.5" ry="2.5" style="stroke:#181818;stroke-width:0.5;" width="180" x="597" y="217.7773"/><polygon fill="#F1F1F1" points="760,222.7773,760,236.7773,772,236.7773,772,228.7773,766,222.7773,760,222.7773" style="stroke:#181818;stroke-width:0.5;"/><line style="stroke:#181818;stroke-width:0.5;" x1="766" x2="766" y1="222.7773" y2="228.7773"/><line style="stroke:#181818;stroke-width:0.5;" x1="772" x2="766" y1="228.7773" y2="228.7773"/><text fill="#000000" font-family="sans-serif" font-size="14" lengthAdjust="spacing" textLength="150" x="607" y="244.3125">@dcl/catalyst-storage</text></g><!--MD5=[87b3d513ec33a445c63e0ea6b49a1f65]
link contentserver to catalystapispecs--><g id="link_contentserver_catalystapispecs"><path d="M598.74,50.3873 C505.42,64.7773 329.98,92.3473 181,118.7773 C176.8,119.5273 172.49,120.2973 168.15,121.0973 " fill="none" id="contentserver-to-catalystapispecs" style="stroke:#181818;stroke-width:1.0;"/><polygon fill="#181818" points="163.03,122.0373,172.6033,124.3506,167.9482,121.1366,171.1622,116.4815,163.03,122.0373" style="stroke:#181818;stroke-width:1.0;"/></g><!--MD5=[2b6b1eff89d09ebd21548f5fb234c80b]
link contentserver to catalystcontracts--><g id="link_contentserver_catalystcontracts"><path d="M598.67,57.6173 C534.48,74.3973 437.28,99.8173 370,117.4073 " fill="none" id="contentserver-to-catalystcontracts" style="stroke:#181818;stroke-width:1.0;"/><polygon fill="#181818" points="364.81,118.7673,374.5307,120.3508,369.6461,117.4977,372.4993,112.6131,364.81,118.7673" style="stroke:#181818;stroke-width:1.0;"/></g><!--MD5=[42dc5e0eeb051217eac2591e77e5b187]
link contentserver to contentvalidator--><g id="link_contentserver_contentvalidator"><path d="M731.16,56.7273 C798.65,73.5173 903.4,99.5773 975.39,117.4773 " fill="none" id="contentserver-to-contentvalidator" style="stroke:#181818;stroke-width:1.0;"/><polygon fill="#181818" points="980.52,118.7473,972.7589,112.684,975.6693,117.5347,970.8186,120.4451,980.52,118.7473" style="stroke:#181818;stroke-width:1.0;"/></g><!--MD5=[5b00effab8240d07ff49847018b51f45]
link contentserver to crypto--><g id="link_contentserver_crypto"><path d="M629.52,58.9773 C598.47,75.3473 553.38,99.1173 521.04,116.1673 " fill="none" id="contentserver-to-crypto" style="stroke:#181818;stroke-width:1.0;"/><polygon fill="#181818" points="516.37,118.6273,526.1966,117.9661,520.7924,116.2945,522.4641,110.8903,516.37,118.6273" style="stroke:#181818;stroke-width:1.0;"/></g><!--MD5=[c90453930419e49875daf3f3f4903f04]
link contentserver to hashing--><g id="link_contentserver_hashing"><path d="M731.23,50.4773 C773.45,60.5473 825.75,80.3073 856,118.7773 C876.96,145.4273 878.43,186.2773 876.79,212.1173 " fill="none" id="contentserver-to-hashing" style="stroke:#181818;stroke-width:1.0;"/><polygon fill="#181818" points="876.4,217.3873,881.0328,208.6961,876.7573,212.4001,873.0533,208.1245,876.4,217.3873" style="stroke:#181818;stroke-width:1.0;"/></g><!--MD5=[f2a62e081199c96f5749878c00710bf1]
link contentserver to schemas--><g id="link_contentserver_schemas"><path d="M648.99,59.0673 C618.19,95.2173 550.8,174.3073 517.47,213.4273 " fill="none" id="contentserver-to-schemas" style="stroke:#181818;stroke-width:1.0;"/><polygon fill="#181818" points="513.96,217.5373,522.8371,213.2714,517.1987,213.728,516.7421,208.0896,513.96,217.5373" style="stroke:#181818;stroke-width:1.0;"/></g><!--MD5=[b4c3e6de4e0cab691978049720343548]
link contentserver to snapshotsfetcher--><g id="link_contentserver_snapshotsfetcher"><path d="M679.65,58.9773 C692.06,74.8173 709.89,97.5673 723.13,114.4673 " fill="none" id="contentserver-to-snapshotsfetcher" style="stroke:#181818;stroke-width:1.0;"/><polygon fill="#181818" points="726.39,118.6273,723.9932,109.0746,723.3085,114.6898,717.6932,114.005,726.39,118.6273" style="stroke:#181818;stroke-width:1.0;"/></g><!--MD5=[e11dad0a24f5546e763f9dea04c90160]
link contentserver to urnresolver--><g id="link_contentserver_urnresolver"><path d="M731.17,45.4273 C849.53,55.4873 1092.11,80.2073 1167,118.7773 C1210.36,141.1073 1247.07,185.9673 1266.69,213.3473 " fill="none" id="contentserver-to-urnresolver" style="stroke:#181818;stroke-width:1.0;"/><polygon fill="#181818" points="1269.69,217.5773,1267.7651,207.9184,1266.8055,213.4933,1261.2306,212.5337,1269.69,217.5773" style="stroke:#181818;stroke-width:1.0;"/></g><!--MD5=[d2957ecac3ef3de9c0229a8ade92ad2e]
link catalystcontracts to ethconnect--><g id="link_catalystcontracts_ethconnect"><path d="M300.36,157.9773 C305.66,173.5473 313.23,195.7973 318.95,212.6073 " fill="none" id="catalystcontracts-to-ethconnect" style="stroke:#181818;stroke-width:1.0;"/><polygon fill="#181818" points="320.66,217.6273,321.5643,207.8201,319.0574,212.8911,313.9864,210.3842,320.66,217.6273" style="stroke:#181818;stroke-width:1.0;"/></g><!--MD5=[e1dc57b980e59fc1d952ea16d6bf42da]
link contentvalidator to contenthashtree--><g id="link_contentvalidator_contenthashtree"><path d="M1057.89,157.9773 C1060.3,173.5473 1063.74,195.7973 1066.34,212.6073 " fill="none" id="contentvalidator-to-contenthashtree" style="stroke:#181818;stroke-width:1.0;"/><polygon fill="#181818" points="1067.12,217.6273,1069.7112,208.1255,1066.3629,212.685,1061.8034,209.3368,1067.12,217.6273" style="stroke:#181818;stroke-width:1.0;"/></g><!--MD5=[d63034edfbfee8611316721f38a854d3]
link contentvalidator to hashing--><g id="link_contentvalidator_hashing"><path d="M1020.1,157.9773 C989.55,174.3473 945.2,198.1173 913.39,215.1673 " fill="none" id="contentvalidator-to-hashing" style="stroke:#181818;stroke-width:1.0;"/><polygon fill="#181818" points="908.79,217.6273,918.6114,216.8918,913.1946,215.2611,914.8254,209.8444,908.79,217.6273" style="stroke:#181818;stroke-width:1.0;"/></g><!--MD5=[82526a912562210d5adbc121a965e2ad]
link contentvalidator to schemas--><g id="link_contentvalidator_schemas"><path d="M960.32,153.1473 C864.04,167.6573 710.7,191.9073 579,217.7773 C575.12,218.5373 571.14,219.3473 567.13,220.1973 " fill="none" id="contentvalidator-to-schemas" style="stroke:#181818;stroke-width:1.0;"/><polygon fill="#181818" points="562.03,221.2673,571.6667,223.3005,566.9198,220.2236,569.9967,215.4767,562.03,221.2673" style="stroke:#181818;stroke-width:1.0;"/></g><!--MD5=[a8260f98ed4bc1c2955c11afbcf76ddf]
link contentvalidator to urnresolver--><g id="link_contentvalidator_urnresolver"><path d="M1088.46,157.9773 C1124.03,174.5173 1180.28,198.6073 1223.17,215.6873 " fill="none" id="contentvalidator-to-urnresolver" style="stroke:#181818;stroke-width:1.0;"/><polygon fill="#181818" points="1228.07,217.6273,1221.1918,210.5782,1223.4257,215.7753,1218.2285,218.0091,1228.07,217.6273" style="stroke:#181818;stroke-width:1.0;"/></g><!--MD5=[a8260f98ed4bc1c2955c11afbcf76ddf]
link contentvalidator to urnresolver--><g id="link_contentvalidator_urnresolver"><path d="M1109.39,157.8673 C1151.29,174.3473 1207.68,198.3773 1244.67,215.4873 " fill="none" id="contentvalidator-to-urnresolver-1" style="stroke:#181818;stroke-width:1.0;"/><polygon fill="#181818" points="1249.53,217.7573,1243.0479,210.3423,1244.994,215.6539,1239.6824,217.5999,1249.53,217.7573" style="stroke:#181818;stroke-width:1.0;"/></g><!--MD5=[c45f192cafb334e2ccb06f34add13204]
link crypto to schemas--><g id="link_crypto_schemas"><path d="M484.28,157.9773 C487.01,173.5473 490.91,195.7973 493.85,212.6073 " fill="none" id="crypto-to-schemas" style="stroke:#181818;stroke-width:1.0;"/><polygon fill="#181818" points="494.73,217.6273,497.1241,208.0739,493.8709,212.7017,489.2431,209.4485,494.73,217.6273" style="stroke:#181818;stroke-width:1.0;"/></g><!--MD5=[d91e2e6d0ca713fa69b3dc7b86c4c820]
link crypto to ethconnect--><g id="link_crypto_ethconnect"><path d="M451.31,157.9773 C425.42,174.2873 387.89,197.9273 360.85,214.9573 " fill="none" id="crypto-to-ethconnect" style="stroke:#181818;stroke-width:1.0;"/><polygon fill="#181818" points="356.6,217.6273,366.3452,216.2021,360.8271,214.9568,362.0724,209.4388,356.6,217.6273" style="stroke:#181818;stroke-width:1.0;"/></g><!--MD5=[65b1e695f05aeb07568e7f38ee1cf26e]
link snapshotsfetcher to catalyststorage--><g id="link_snapshotsfetcher_catalyststorage"><path d="M730.59,157.9773 C721.85,173.6773 709.32,196.1873 699.94,213.0373 " fill="none" id="snapshotsfetcher-to-catalyststorage" style="stroke:#181818;stroke-width:1.0;"/><polygon fill="#181818" points="697.38,217.6273,705.2622,211.7221,699.8191,213.2626,698.2786,207.8196,697.38,217.6273" style="stroke:#181818;stroke-width:1.0;"/></g><!--MD5=[7204b6c130a88f094f15ecb6a718e02f]
link snapshotsfetcher to hashing--><g id="link_snapshotsfetcher_hashing"><path d="M766.64,157.9773 C788.82,174.1473 820.88,197.5373 844.19,214.5373 " fill="none" id="snapshotsfetcher-to-hashing" style="stroke:#181818;stroke-width:1.0;"/><polygon fill="#181818" points="848.43,217.6273,843.5273,209.0855,844.3944,214.6755,838.8043,215.5425,848.43,217.6273" style="stroke:#181818;stroke-width:1.0;"/></g><!--MD5=[65d9e53c1e8539e9dd5b07116bd781b3]
link snapshotsfetcher to schemas--><g id="link_snapshotsfetcher_schemas"><path d="M694.43,157.8673 C652.9,174.4473 592.2,198.6773 549.29,215.8073 " fill="none" id="snapshotsfetcher-to-schemas" style="stroke:#181818;stroke-width:1.0;"/><polygon fill="#181818" points="544.41,217.7573,554.2519,218.1287,549.0524,215.9004,551.2807,210.7009,544.41,217.7573" style="stroke:#181818;stroke-width:1.0;"/></g><!--MD5=[501fdaf76d571945861a4d3062d17a51]
@startuml
header "Content Server"
artifact "content-server" as contentserver
artifact "catalyst-api-specs" as catalystapispecs
artifact "@dcl/catalyst-contracts" as catalystcontracts
artifact "@dcl/content-validator" as contentvalidator
artifact "@dcl/crypto" as crypto
artifact "@dcl/hashing" as hashing
artifact "@dcl/schemas" as schemas
artifact "@dcl/snapshots-fetcher" as snapshotsfetcher
artifact "@dcl/urn-resolver" as urnresolver
artifact "eth-connect" as ethconnect
artifact "@dcl/content-hash-tree" as contenthashtree
artifact "@dcl/catalyst-storage" as catalyststorage

contentserver - -> catalystapispecs
contentserver - -> catalystcontracts
contentserver - -> contentvalidator
contentserver - -> crypto
contentserver - -> hashing
contentserver - -> schemas
contentserver - -> snapshotsfetcher
contentserver - -> urnresolver
catalystcontracts - -> ethconnect
contentvalidator - -> contenthashtree
contentvalidator - -> hashing
contentvalidator - -> schemas
contentvalidator - -> urnresolver
contentvalidator - -> urnresolver
crypto - -> schemas
crypto - -> ethconnect
snapshotsfetcher - -> catalyststorage
snapshotsfetcher - -> hashing
snapshotsfetcher - -> schemas

newpage
header "Lambdas Server"
artifact "lambdas-server" as lambdasserver
artifact "catalyst-api-specs" as catalystapispecs
artifact "@dcl/catalyst-contracts" as catalystcontracts
artifact "@dcl/crypto" as crypto
artifact "@dcl/schemas" as schemas
artifact "@dcl/urn-resolver" as urnresolver
artifact "eth-connect" as ethconnect

lambdasserver - -> catalystapispecs
lambdasserver - -> catalystcontracts
lambdasserver - -> crypto
lambdasserver - -> schemas
lambdasserver - -> urnresolver
catalystcontracts - -> ethconnect
crypto - -> schemas
crypto - -> ethconnect

@enduml

PlantUML version 1.2022.6(Tue Jun 21 14:34:49 ART 2022)
(GPL source distribution)
Java Runtime: OpenJDK Runtime Environment
JVM: OpenJDK 64-Bit Server VM
Default Encoding: UTF-8
Language: en
Country: AR
--></g></svg>